<svg width="24" height="24" viewBox="0 0 24 24" fill="none" xmlns="http://www.w3.org/2000/svg">
<path fill-rule="evenodd" clip-rule="evenodd" d="M10.361 3.61091C11.3924 2.57946 12.7914 2 14.25 2H16.95C17.5023 2 17.95 2.44772 17.95 3V6.6C17.95 7.15228 17.5023 7.6 16.95 7.6H14.35V9.2H16.95C17.258 9.2 17.5487 9.34187 17.7383 9.58459C17.9278 9.8273 17.9949 10.1438 17.9202 10.4425L17.0202 14.0425C16.9089 14.4877 16.5089 14.8 16.05 14.8H14.35V21C14.35 21.5523 13.9023 22 13.35 22H9.75005C9.19776 22 8.75005 21.5523 8.75005 21V14.8H7.05005C6.49776 14.8 6.05005 14.3523 6.05005 13.8V10.2C6.05005 9.64772 6.49776 9.2 7.05005 9.2H8.75005V7.5C8.75005 6.04131 9.32951 4.64236 10.361 3.61091ZM14.25 4C13.3218 4 12.4316 4.36875 11.7752 5.02513C11.1188 5.6815 10.75 6.57174 10.75 7.5V10.2C10.75 10.7523 10.3023 11.2 9.75005 11.2H8.05005V12.8H9.75005C10.3023 12.8 10.75 13.2477 10.75 13.8V20H12.35V13.8C12.35 13.2477 12.7978 12.8 13.35 12.8H15.2693L15.6693 11.2H13.35C12.7978 11.2 12.35 10.7523 12.35 10.2V7.5C12.35 6.99609 12.5502 6.51282 12.9065 6.1565C13.2629 5.80018 13.7461 5.6 14.25 5.6H15.95V4H14.25Z" fill="#3F4B59"/>
</svg>
