<svg width="24" height="24" viewBox="0 0 24 24" fill="none" xmlns="http://www.w3.org/2000/svg">
<path fill-rule="evenodd" clip-rule="evenodd" d="M7.5 4C5.567 4 4 5.567 4 7.5V16.5C4 18.433 5.567 20 7.5 20H16.5C18.433 20 20 18.433 20 16.5V7.5C20 5.567 18.433 4 16.5 4H7.5ZM2 7.5C2 4.46243 4.46243 2 7.5 2H16.5C19.5376 2 22 4.46243 22 7.5V16.5C22 19.5376 19.5376 22 16.5 22H7.5C4.46243 22 2 19.5376 2 16.5V7.5ZM12.4203 9.38921C11.8794 9.30899 11.3269 9.40139 10.8415 9.65327C10.3561 9.90514 9.96243 10.3037 9.71656 10.7922C9.47069 11.2806 9.38511 11.8342 9.47199 12.3742C9.55887 12.9141 9.81379 13.4129 10.2005 13.7996C10.5872 14.1863 11.086 14.4412 11.6259 14.5281C12.1658 14.615 12.7194 14.5294 13.2079 14.2835C13.6964 14.0376 14.0949 13.644 14.3468 13.1586C14.5987 12.6732 14.6911 12.1207 14.6108 11.5797C14.529 11.0279 14.2719 10.5171 13.8774 10.1226C13.483 9.72816 12.9721 9.47104 12.4203 9.38921ZM9.92035 7.87802C10.7792 7.4324 11.7566 7.26892 12.7137 7.41084C13.69 7.55561 14.5938 8.01053 15.2917 8.7084C15.9895 9.40627 16.4444 10.3101 16.5892 11.2863C16.7311 12.2434 16.5677 13.2209 16.122 14.0797C15.6764 14.9385 14.9713 15.635 14.1071 16.07C13.2428 16.505 12.2634 16.6564 11.3082 16.5027C10.3529 16.349 9.47044 15.8979 8.78628 15.2138C8.10212 14.5296 7.65111 13.6472 7.49739 12.6919C7.34368 11.7366 7.49509 10.7572 7.93009 9.89297C8.36509 9.02873 9.06153 8.32365 9.92035 7.87802ZM16.95 6.05005C16.3977 6.05005 15.95 6.49776 15.95 7.05005C15.95 7.60233 16.3977 8.05005 16.95 8.05005H16.959C17.5112 8.05005 17.959 7.60233 17.959 7.05005C17.959 6.49776 17.5112 6.05005 16.959 6.05005H16.95Z" fill="#3F4B59"/>
</svg>
