<svg width="24" height="24" viewBox="0 0 24 24" fill="none" xmlns="http://www.w3.org/2000/svg">
<path fill-rule="evenodd" clip-rule="evenodd" d="M12 2C6.49774 2 2.00002 6.49772 2.00002 12C2.00002 13.6642 2.42574 15.2292 3.10647 16.6166L2.0322 20.7484C1.94189 21.0957 2.04464 21.4648 2.30143 21.7155C2.55822 21.9662 2.92967 22.0601 3.27474 21.9615L7.2814 20.8168C8.70487 21.582 10.352 22 12 22C17.5023 22 22 17.5023 22 12C22 6.49772 17.5023 2 12 2ZM4.00002 12C4.00002 7.60228 7.60231 4 12 4C16.3977 4 20 7.60228 20 12C20 16.3977 16.3977 20 12 20C10.5592 20 9.11732 19.5982 7.92452 18.8825C7.68718 18.7401 7.40144 18.7024 7.1353 18.7785L4.40829 19.5576L5.13785 16.7516C5.20101 16.5087 5.1705 16.2509 5.05238 16.0294C4.39792 14.8023 4.00002 13.4327 4.00002 12ZM16.8874 14.1389C16.6207 14.0049 15.3052 13.3569 15.0601 13.2684C14.8149 13.1787 14.6367 13.1345 14.4585 13.4023C14.2803 13.6691 13.7673 14.2728 13.6107 14.451C13.4552 14.6292 13.2986 14.6508 13.0318 14.5169C12.2435 14.203 11.5158 13.7542 10.8815 13.1906C10.2965 12.6499 9.79498 12.0253 9.39329 11.3373C9.23777 11.0695 9.37709 10.9248 9.51101 10.7919C9.59362 10.7093 9.68955 10.5924 9.78468 10.4764C9.82762 10.4241 9.87039 10.3719 9.91169 10.3232C10.0217 10.188 10.1119 10.0378 10.1795 9.87717C10.2151 9.80335 10.2317 9.72179 10.2277 9.63993C10.2238 9.55807 10.1994 9.4785 10.1569 9.40845C10.1113 9.31739 9.84953 8.67944 9.6167 8.11206C9.50715 7.84509 9.404 7.59374 9.33281 7.42233C9.14123 6.96293 8.94713 6.96363 8.7906 6.9642C8.76976 6.96427 8.74958 6.96435 8.73017 6.96333C8.57465 6.95577 8.39645 6.95361 8.21825 6.95361C8.0827 6.95739 7.94939 6.98919 7.82672 7.04699C7.70404 7.10479 7.59466 7.18736 7.50545 7.28949C7.20308 7.57584 6.96366 7.92203 6.80245 8.306C6.64123 8.68997 6.56176 9.10331 6.56909 9.51969C6.65581 10.5287 7.03531 11.4904 7.66097 12.2867C8.80784 14.0061 10.3822 15.3977 12.2294 16.3248C12.7276 16.5388 13.2366 16.727 13.7543 16.8885C14.3001 17.0542 14.877 17.0901 15.4391 16.9933C15.8114 16.9179 16.164 16.7661 16.4746 16.5475C16.7852 16.3288 17.0472 16.0482 17.2438 15.7232C17.4193 15.3236 17.4733 14.8811 17.3993 14.451C17.3465 14.3609 17.2215 14.3007 17.036 14.2114C16.9901 14.1893 16.9405 14.1654 16.8874 14.1389Z" fill="#3F4B59"/>
</svg>
