<svg width="400" height="194" viewBox="0 0 400 194" fill="none" xmlns="http://www.w3.org/2000/svg">
<g clip-path="url(#clip0_37_7520)">
<path d="M123.732 144.101C123.897 143.919 123.946 143.688 123.897 143.391C123.633 142.434 122.643 142.451 119.376 142.517C118.188 142.533 116.654 142.566 114.724 142.566C110.204 142.566 108.141 142.484 106.624 142.418C105.931 142.385 105.337 142.368 104.677 142.352C105.947 137.799 107.317 134.153 107.531 133.74C107.828 133.113 107.993 133.014 108.026 133.014C108.471 133.014 108.735 132.783 108.867 132.255C109.016 131.612 108.752 130.259 108.24 129.632C107.976 129.286 107.68 129.22 107.482 129.22C105.881 129.22 103.753 133.872 101.724 141.676C101.641 141.89 101.559 142.121 101.476 142.335L91.5944 142.269C89.5652 142.269 89.1363 142.071 88.5094 141.692C87.8495 141.28 86.5791 141.725 85.9027 142.203C85.2428 142.665 85.1769 143.111 85.2593 143.441C85.6388 144.843 86.1502 144.843 99.0513 144.843H100.52C95.7023 157.299 89.3342 170.167 85.5893 170.167C85.4738 170.167 85.3748 170.167 85.2593 170.134C85.1274 170.051 85.0284 169.507 85.2593 167.445C85.2593 165.597 83.9725 164.591 82.7682 164.591C81.5639 164.591 80.1451 165.317 78.2149 166.323L77.8024 166.537C76.5156 167.181 75.3443 167.742 74.7174 168.022C75.0638 166.999 75.6578 165.135 75.7732 163.997C75.8062 163.683 75.8227 163.238 75.5423 162.924C75.2618 162.611 74.8659 162.627 74.6679 162.627H74.5359C74.107 162.71 73.4801 162.809 73.1501 163.716C72.9192 165.168 72.4572 166.686 72.1603 167.709C71.9128 168.501 71.8303 168.781 71.8303 168.979C71.8303 170.002 73.5461 170.596 74.0905 170.596C74.6349 170.596 76.1692 169.919 79.8316 168.072L80.1616 167.907C81.7289 167.082 82.1248 167.065 82.1908 167.049C82.2568 167.181 82.2568 167.725 82.2568 168.253C82.1413 169.292 81.8443 172.064 84.2695 172.526C84.5005 172.575 84.7479 172.592 84.9789 172.592C87.8825 172.592 91.3799 169.375 94.7289 163.601C96.2632 160.928 97.682 157.777 99.0183 154.478C97.1541 165.861 96.4282 175.281 96.2962 179.191C96.2467 182.507 96.4447 186.648 97.616 187.605C97.814 187.753 98.0285 187.836 98.2264 187.836C98.2924 187.836 98.3419 187.836 98.4079 187.819C98.7214 187.77 99.0678 187.704 99.2823 187.407C99.5132 187.06 99.4307 186.664 99.2823 186.004C99.1833 185.543 99.0348 184.932 98.9193 184.041C98.4904 180.56 99.0513 173.961 99.5957 170.035C100.322 164.228 101.229 158.322 102.285 152.481C102.714 149.875 103.341 147.169 103.935 144.827H115.648C120.878 144.827 123.072 144.81 123.682 144.084L123.732 144.101Z" fill="#A39D8F"/>
<path d="M129.242 163.139C129.242 162.726 129.027 162.528 128.895 162.446C128.516 162.198 127.988 162.281 126.932 162.743C125.992 163.122 124.441 163.287 123.336 163.287C122.89 163.287 122.23 163.056 121.603 162.825C120.861 162.561 120.086 162.264 119.393 162.264C118.057 162.264 115.4 164.013 112.893 166.504C111.919 167.527 111.26 168.352 110.798 168.979C110.897 168.533 111.029 167.973 111.227 167.263C111.556 165.811 111.952 164.673 112.216 163.931C112.48 163.172 112.596 162.825 112.546 162.578C112.53 162.396 112.398 161.934 111.672 161.802C110.963 161.67 109.725 161.885 109.296 162.66C108.966 163.403 107.944 169.21 107.729 171.866C107.614 173.433 107.63 174.077 107.647 174.423V174.605C107.647 175.099 108.389 175.924 108.966 175.924C109.511 175.924 109.692 175.495 110.303 174.044L110.468 173.648C111.128 172.08 112.348 170.348 114.081 168.484C116.044 166.372 118.914 165.151 119.393 165.151C119.607 165.151 119.855 165.217 120.168 165.3C120.779 165.448 121.62 165.663 122.956 165.663C125.365 165.663 129.225 164.129 129.225 163.172L129.242 163.139Z" fill="#A39D8F"/>
<path d="M177.497 155.566C177.91 155.566 178.388 155.269 179.543 154.511L179.757 154.362C180.599 153.768 181.952 152.976 182.513 152.679C182.71 153.207 183.04 154.296 183.189 154.808C183.436 155.649 183.733 156.474 184.591 156.474H184.608C185.251 156.309 185.647 155.83 185.647 155.121L184.69 151.244C184.492 150.535 183.453 149.726 182.694 149.858C181.671 149.941 180.648 150.584 179.46 151.327C178.933 151.689 176.342 153.455 176.309 154.379C176.309 154.742 176.491 155.104 176.788 155.335C177.035 155.533 177.332 155.599 177.481 155.55L177.497 155.566Z" fill="#A39D8F"/>
<path d="M214.584 142.517C213.396 142.533 211.862 142.566 209.931 142.566C205.411 142.566 203.349 142.484 201.831 142.418C201.138 142.385 200.544 142.368 199.884 142.352C201.155 137.799 202.524 134.153 202.739 133.74C203.035 133.097 203.2 133.014 203.233 133.014C203.679 133.014 203.943 132.783 204.075 132.255C204.223 131.612 203.959 130.259 203.448 129.632C203.184 129.286 202.887 129.22 202.689 129.22C201.056 129.22 198.829 134.12 196.75 142.335L186.802 142.269C184.773 142.269 184.344 142.071 183.717 141.692C183.057 141.28 181.787 141.725 181.11 142.203C180.45 142.665 180.384 143.111 180.467 143.441C180.846 144.843 181.358 144.843 194.259 144.843H196.14C195.645 146.988 195.199 149.165 194.754 151.525C194.028 155.467 193.417 159.773 192.923 163.947C189.639 164.871 185.4 165.844 182.776 166.059C182.661 166.075 182.546 166.092 182.447 166.108C182.348 161.374 180.137 158.322 176.755 158.322C174.973 158.322 173.274 159.262 172.317 160.78C171.476 162.099 171.344 163.617 171.938 164.954C166.279 167.692 157.931 171.272 153.592 171.734C152.009 171.932 150.524 171.668 149.831 171.091C149.567 170.876 149.435 170.629 149.418 170.332C149.336 169.078 150.441 167.461 152.338 166.042C154.549 164.393 156.199 164.145 156.941 164.426C157.288 164.558 157.634 164.492 157.882 164.244C158.195 163.931 158.261 163.386 158.063 162.908C157.799 162.281 157.156 161.902 156.347 161.902C154.549 161.902 152.767 162.644 150.903 164.145C149.517 164.756 148.198 165.333 147.026 165.861C138.893 169.457 135.181 171.091 132.558 171.322C132.03 171.355 131.172 171.289 130.743 170.678C132.525 170.018 135.692 168.501 136.732 165.811C137.111 164.706 137.111 163.766 136.699 163.073C136.369 162.528 135.824 162.182 135.099 162.067C133.449 161.753 130.248 163.023 128.631 166.735C127.774 168.633 127.823 170.579 128.796 171.965C129.605 173.12 130.941 173.747 132.558 173.747C132.723 173.747 132.904 173.747 133.069 173.73C135.808 173.532 139.388 171.8 144.832 169.193C145.706 168.765 146.647 168.319 147.604 167.857C147.01 168.946 146.746 169.985 146.878 170.959C147.01 171.866 147.439 172.592 148.165 173.136C149.171 173.895 150.59 174.126 151.959 174.126C152.734 174.126 153.493 174.044 154.17 173.945C157.865 173.4 165.85 170.365 171.954 167.362C171.591 167.956 171.245 168.534 170.981 169.111C168.968 173.037 168.572 177.244 169.991 179.587C170.618 180.626 171.558 181.171 172.68 181.171C176.408 181.171 181.49 175.364 182.331 168.468C182.463 168.468 182.595 168.435 182.711 168.402C185.4 168.171 189.508 167.082 192.692 166.108C191.85 173.714 191.454 176.205 191.372 178.812C191.322 182.128 191.52 186.268 192.692 187.225C192.89 187.374 193.104 187.456 193.302 187.456C193.368 187.456 193.417 187.456 193.483 187.44C193.797 187.39 194.143 187.324 194.341 187.027C194.572 186.681 194.49 186.285 194.341 185.642C194.242 185.18 194.094 184.569 193.978 183.678C193.533 180.181 194.259 174.011 194.82 170.084C195.018 168.468 195.265 166.851 195.496 165.234C196.222 164.987 196.766 164.789 197.063 164.673C197.311 164.574 197.492 164.343 197.525 164.079C197.575 163.733 197.41 163.353 197.113 163.122C196.832 162.908 196.486 162.858 196.189 162.99C196.074 163.023 195.925 163.073 195.793 163.122C196.304 159.592 196.882 156.061 197.525 152.547C197.954 149.941 198.581 147.235 199.175 144.893H210.888C216.135 144.893 218.312 144.876 218.923 144.15C219.088 143.969 219.137 143.738 219.088 143.441C218.824 142.484 217.834 142.5 214.567 142.566L214.584 142.517ZM130.892 167.626C131.931 165.053 133.762 164.162 134.505 164.162C134.587 164.162 134.653 164.162 134.703 164.195C134.769 164.31 134.769 164.591 134.67 164.921C134.224 166.125 132.343 167.791 130.529 168.666C130.611 168.352 130.727 168.006 130.892 167.626ZM172.4 178.795C172.301 178.795 172.169 178.68 172.053 178.498C171.344 177.343 171.294 173.895 173.356 169.87C173.802 169.045 174.346 168.237 174.825 167.577C176.458 168.237 178.388 168.435 179.691 168.468C178.9 174.423 175.254 178.812 172.4 178.812V178.795ZM179.906 166.108C178.603 166.059 177.382 165.877 176.392 165.531C176.672 165.201 176.92 164.937 177.134 164.706C177.646 164.145 177.811 163.98 177.811 163.7C177.811 163.667 177.811 163.634 177.794 163.617C177.794 163.452 177.761 163.304 177.695 163.205C177.679 163.172 177.629 163.155 177.613 163.139C177.431 162.875 177.118 162.677 176.639 162.677C176.491 162.677 176.276 162.776 176.062 162.891C176.012 162.908 175.93 162.924 175.881 162.957C175.402 163.205 174.841 163.502 174.214 163.815C173.835 162.908 174.049 162.198 174.33 161.753C174.792 161.027 175.65 160.565 176.54 160.565C178.157 160.565 179.889 162.231 179.889 165.877V166.075L179.906 166.108Z" fill="#A39D8F"/>
<path d="M213.478 168.633C211.713 169.952 209.651 171.371 207.44 171.371C206.599 171.371 205.939 171.107 205.56 170.645C207.341 169.969 210.476 168.468 211.499 165.795C211.878 164.69 211.878 163.749 211.466 163.056C211.136 162.512 210.591 162.165 209.865 162.05C208.199 161.737 205.015 163.007 203.398 166.719C202.541 168.616 202.59 170.563 203.563 171.949C204.372 173.103 205.708 173.73 207.341 173.73C207.506 173.73 207.671 173.73 207.853 173.714C209.552 173.631 212.654 172.18 214.551 170.117C215.376 169.226 215.079 168.699 214.897 168.534C214.65 168.27 214.138 168.138 213.478 168.633ZM205.659 167.643C206.698 165.069 208.529 164.178 209.272 164.178C209.354 164.178 209.42 164.178 209.47 164.211C209.536 164.327 209.536 164.607 209.437 164.937C208.991 166.141 207.11 167.808 205.296 168.682C205.378 168.369 205.494 168.022 205.659 167.643Z" fill="#A39D8F"/>
<path d="M249.476 147.879C249.922 145.783 250.351 143.738 250.73 141.873C254.393 132.948 254.426 132.453 254.442 132.288C254.492 131.628 253.964 130.787 253.485 130.276C253.155 129.913 252.644 129.484 252.132 129.484C251.143 129.484 251.077 129.781 249.295 137.172L247.678 143.853L245.83 147.829C243.686 152.465 241.244 157.695 239.017 162.71C238.373 162.528 237.433 162.347 236.559 162.314C234.43 162.33 232.467 163.287 230.867 165.086C228.425 167.824 227.073 172.344 227.485 176.337C227.749 178.861 229.217 180.907 230.752 180.907C232.418 180.907 233.16 179.405 240.089 165.349L242.135 166.24C242.613 166.471 243.026 166.389 243.273 166.158C242.877 168.533 242.564 170.893 242.151 173.202C239.726 186.928 240.898 187.935 241.475 188.232C241.673 188.331 241.887 188.397 242.085 188.397C242.349 188.397 242.597 188.314 242.811 188.149C243.191 187.869 243.405 187.39 243.323 186.994C243.273 186.73 242.844 186.004 242.795 185.74C242.679 185.114 243.339 181.303 244.379 174.11C245.748 164.541 247.777 155.682 249.443 147.846L249.476 147.879ZM230.603 178.432C230.488 178.218 230.29 177.64 230.141 176.155C229.811 173.037 230.999 169.276 233.028 166.999C234.315 165.564 235.866 164.789 237.499 164.772H237.532C237.697 164.772 237.862 164.772 238.027 164.805C235.866 169.49 231.741 177.162 230.603 178.432ZM243.141 164.706C242.646 164.31 241.92 163.865 241.096 163.469C242.646 160.252 244.197 156.886 245.583 153.834C244.807 157.728 244.098 161.489 243.471 165.168C243.405 165.003 243.29 164.855 243.141 164.706Z" fill="#A39D8F"/>
<path d="M259.54 168.633C257.774 169.952 255.712 171.371 253.502 171.371C253.073 171.371 252.132 171.289 251.621 170.645C253.403 169.985 256.537 168.468 257.56 165.795C257.939 164.69 257.939 163.733 257.527 163.056C257.197 162.512 256.653 162.165 255.927 162.05C254.26 161.737 251.076 163.007 249.46 166.719C248.602 168.616 248.651 170.563 249.625 171.949C250.433 173.103 251.769 173.73 253.403 173.73C253.568 173.73 253.732 173.73 253.914 173.714C255.613 173.631 258.715 172.18 260.612 170.117C261.437 169.226 261.14 168.699 260.958 168.534C260.711 168.27 260.2 168.138 259.556 168.633H259.54ZM251.72 167.643C252.759 165.069 254.59 164.178 255.349 164.178C255.432 164.178 255.498 164.178 255.547 164.211C255.613 164.327 255.63 164.607 255.514 164.937C255.069 166.141 253.188 167.808 251.373 168.682C251.456 168.369 251.571 168.022 251.736 167.643H251.72Z" fill="#A39D8F"/>
<path d="M318.469 143.655C318.749 139.679 317.595 136.083 315.202 133.509C312.414 130.507 307.96 128.923 302.351 128.923C292.37 128.923 283.131 133.41 275.641 141.906C268.3 150.337 269.141 159.691 272.474 162.858C273.183 163.931 274.75 164.525 275.707 164.393C276.318 164.31 276.532 163.964 276.598 163.766C276.813 163.106 276.169 162.479 275.971 162.281C271.682 158.058 272.424 150.551 277.753 144.018C283.923 136.396 293.756 131.266 302.219 131.266C307.168 131.266 310.979 132.602 313.289 135.142C315.186 137.238 316.027 140.075 315.697 143.358C314.576 154.775 301.031 162.149 288.311 162.842L288.427 162.396C290.572 152.085 292.452 145.189 294.68 139.349C295.29 137.749 294.63 137.337 294.416 137.238C294.201 137.139 293.409 136.957 292.634 138.607C289.648 144.991 287.734 152.283 285.622 161.918C285.507 162.231 285.441 162.561 285.391 162.875H285.259C284.171 162.842 283.709 163.287 283.544 163.551C283.329 163.898 283.329 164.327 283.544 164.706C283.791 165.135 284.253 165.448 284.83 165.564C283.098 173.73 281.613 182.738 281.003 187.39C280.904 188.248 281.481 188.38 281.597 188.397C281.63 188.397 281.679 188.397 281.712 188.397C282.57 188.397 283.742 186.961 283.973 185.856C284.121 185.279 284.286 184.206 284.534 182.573C285.094 179.009 285.804 174.555 287.701 165.58C304.859 164.723 317.776 155.533 318.486 143.622L318.469 143.655Z" fill="#A39D8F"/>
<path d="M373.34 155.847C373.422 155.88 373.521 155.896 373.62 155.896C373.769 155.896 373.917 155.863 374.082 155.781C374.61 155.533 375.32 154.824 375.551 154.148C375.699 153.702 375.633 153.174 375.369 152.696C375.122 152.234 374.726 151.904 374.264 151.788C373.472 151.656 372.713 152.729 372.515 153.389C372.334 153.95 372.515 155.583 373.323 155.847H373.34Z" fill="#A39D8F"/>
<path d="M399.67 163.205C399.093 162.743 398.053 162.875 397.69 163.056C395.117 164.129 392.065 165.993 389.211 168.237C388.683 166.933 388.138 165.729 387.66 164.64C386.983 163.139 386.406 161.836 386.208 161.06C385.944 160.021 386.719 158.882 388.419 157.233L388.6 157.051C388.848 156.952 389.079 156.787 389.475 156.523C390.019 156.16 390.217 155.368 390.052 154.907C389.92 154.527 389.128 153.719 387.808 153.834C385.779 154.164 383.915 156.754 383.733 159.823C378.718 165.415 371.641 171.305 368.259 171.305C368.259 171.305 368.11 171.124 368.143 170.579C368.275 169.507 368.886 165.053 369.991 162.875C370.354 162.149 370.205 161.704 370.024 161.473C369.793 161.176 369.397 161.044 369.001 161.126C368.391 161.225 367.995 161.44 367.681 161.704C367.648 161.72 367.615 161.737 367.599 161.753C360.076 168.204 349.435 175.166 345.409 174.671C345.278 174.671 345.047 174.621 344.997 174.506C344.898 174.308 344.931 173.73 345.756 172.047C346.119 171.272 346.465 170.612 346.746 170.084C347.257 169.111 347.554 168.534 347.554 168.055C347.554 167.016 346.828 166.686 344.37 165.696C346.119 164.541 346.993 163.254 347.191 161.555C347.307 160.631 346.234 159.641 345.476 159.46C344.106 159.196 341.747 160.136 341.021 163.04C340.84 163.782 340.807 164.657 341.054 165.465C338.332 166.9 333.63 169.622 328.285 171.338C326.536 171.85 325.019 172.179 323.963 172.179C322.395 172.179 321.274 171.47 321.274 170.513C321.274 169.556 321.538 168.698 321.752 168.022C321.9 167.577 321.999 167.23 321.999 166.933C321.999 166.224 321.356 165.828 320.696 165.762C320.729 165.729 320.746 165.696 320.779 165.663C320.878 165.514 320.927 165.333 320.927 165.135C320.927 164.145 319.805 162.33 318.205 162.33C317.017 162.33 315.45 162.611 312.876 164.624C309.692 166.966 309.016 169.045 309.016 170.365C309.016 171.124 309.989 171.982 311.276 171.982C312.15 171.982 314.592 170.975 316.687 169.738C318.024 169.028 318.667 168.748 318.931 168.616C318.931 168.649 318.931 168.682 318.931 168.715C318.881 169.127 318.782 169.738 318.782 170.579C318.782 172.493 320.119 174.737 323.897 174.737C324.738 174.737 326.008 174.407 327.411 173.978C327.411 173.978 327.543 173.945 327.609 173.928C327.642 173.928 327.658 173.928 327.691 173.912C333.35 172.344 339.157 168.962 342.176 167.115C342.473 167.362 342.819 167.577 343.248 167.742C344.37 168.171 344.634 168.352 344.667 168.352C344.667 168.534 344.337 169.226 344.024 169.886C343.859 170.233 343.677 170.612 343.479 171.058C342.209 173.714 342.456 175.232 342.885 176.04C343.265 176.749 343.958 177.211 344.816 177.327C345.063 177.36 345.327 177.376 345.64 177.376C349.616 177.376 359.68 170.843 366.79 165.547C366.79 165.547 366.477 166.471 366.328 167.148C365.883 169.292 364.761 173.747 368.572 173.615C372.845 173.466 379.477 168.055 384.129 162.297C384.509 163.799 385.301 165.663 386.142 167.626C386.472 168.385 386.802 169.16 387.132 169.952C385.449 171.454 383.865 173.054 382.414 174.704C376.854 180.874 374.511 186.763 376.161 190.442C376.969 192.274 378.685 193.28 380.978 193.28C385.565 193.28 392.213 188.314 392.213 180.511C392.213 177.673 391.52 174.407 390.118 170.53C393.549 167.643 396.931 165.399 399.01 164.657C399.489 164.492 400.016 164.277 400.066 163.815C400.066 163.683 400.066 163.37 399.752 163.188L399.67 163.205ZM316.605 167.28C316.06 167.544 315.466 167.841 314.807 168.154C313.652 168.731 312.282 169.391 311.474 169.573C311.853 168.847 312.992 167.379 314.46 166.422C316.506 165.036 317.826 164.541 318.403 164.541C318.535 164.541 318.733 164.838 318.898 165.069C319.112 165.382 319.36 165.745 319.723 165.91C318.98 166.141 317.991 166.62 316.621 167.28H316.605ZM343.38 163.881C343.38 163.881 343.413 163.749 343.446 163.683C343.727 162.776 344.618 161.885 345.03 161.638C344.931 162.248 344.585 162.974 343.38 163.865V163.881ZM380.186 191.086C379.378 191.086 378.949 190.492 378.718 189.98C377.877 188.133 378.124 183.117 384.36 175.99L384.954 175.364C385.928 174.324 386.934 173.268 388.006 172.295C388.897 174.638 389.738 177.261 389.738 179.504C389.738 186.021 384.608 191.086 380.203 191.086H380.186Z" fill="#A39D8F"/>
<path d="M73.5956 174.291C64.6539 179.521 57.098 182.078 50.499 182.078C47.8594 182.078 42.8111 181.369 40.584 178.729C39.6271 177.591 39.2807 176.188 39.5611 174.539C41.1614 165.036 55.0853 158.305 59.1767 158.305C60.0181 158.305 60.81 158.47 61.6679 158.635C62.5257 158.8 63.4166 158.981 64.357 158.981C65.1158 158.981 66.0232 158.454 66.2212 157.299C66.3202 156.738 66.1882 156.226 65.8417 155.814C64.9179 154.725 62.7567 154.659 62.3278 154.659C60.942 154.659 59.4077 154.923 57.4115 155.5C55.9927 155.038 44.5599 151.013 45.9457 142.748C46.2756 140.785 47.3645 138.904 49.2947 137.023C52.9736 133.344 58.5828 132.041 62.6247 132.041C65.2643 132.041 73.9915 132.668 75.7238 140.752C75.7898 141.016 75.8393 141.23 75.7898 141.51C75.7568 141.675 75.6743 141.741 75.4598 141.89C75.2619 142.022 74.9979 142.203 74.8329 142.517L74.7834 142.715C74.7504 143.094 74.8989 143.342 75.0309 143.49C75.3608 143.853 75.8888 143.853 76.0537 143.853C77.0601 143.853 79.0398 143.358 79.3697 141.477C79.4357 141.032 79.3532 140.62 79.2543 140.191C76.5322 130.309 67.1286 129.253 63.2186 129.253C58.3353 129.253 45.2363 131.628 43.4051 142.484C41.9698 150.98 50.4 155.17 53.782 156.787C51.2579 158.041 38.4723 164.888 36.707 175.446C36.2946 177.855 36.74 179.851 38.0103 181.352C40.7819 184.635 46.6551 184.685 49.7236 184.685H49.8721C56.9331 184.685 66.1717 181.649 74.008 176.766C74.4865 176.469 74.8494 175.924 74.9484 175.347C74.9814 175.133 75.0144 174.72 74.7504 174.423C74.4865 174.11 74.0575 173.994 73.6286 174.324L73.5956 174.291Z" fill="#A39D8F"/>
<path d="M21.6942 142.401L22.1727 142.451C22.3046 142.484 22.4366 142.5 22.5686 142.5C22.7831 142.5 22.9975 142.451 23.1955 142.352C24.0699 141.956 24.5978 140.801 25.2412 138.887C25.6372 137.386 25.7196 135.984 25.5052 134.796C25.2247 133.74 24.4988 133.592 24.2019 133.575C23.3935 133.542 22.7501 134.268 22.5521 134.796L22.4861 135.06C22.4531 135.357 22.5026 135.588 22.5521 135.769C22.6181 136.033 22.7171 136.429 22.5191 137.452C22.1562 139.052 21.8097 139.564 21.6117 139.844C21.5458 139.943 21.4963 140.026 21.4468 140.108C21.1498 140.603 21.0838 141.28 21.3148 141.758L21.7107 142.401H21.6942Z" fill="#A39D8F"/>
<path d="M30.8669 170.909C30.537 171.025 29.7121 171.421 28.4418 172.031C25.7197 173.318 20.6384 175.726 14.5508 178.251C7.01144 181.451 4.76777 182.111 3.77792 182.194C3.71193 181.93 3.62944 181.27 3.82741 179.785C4.20685 176.898 8.13328 162.528 10.245 154.791C11.6473 149.611 12.6206 146.988 13.9569 143.342L14.2539 142.517C15.4582 139.085 15.9531 138.277 16.481 137.914C17.5369 137.172 18.3123 135.703 17.7514 134.829L17.0255 134.021L16.1841 134.483C15.8046 134.697 15.6562 134.763 15.2437 134.813C14.0889 134.994 12.5051 135.225 8.84267 148.786C7.40738 154.148 5.80712 159.79 4.38833 164.756C2.19415 172.443 0.461906 178.531 0.115457 180.857C-0.0825134 182.128 -0.181499 183.728 0.742365 184.817C1.31978 185.493 2.19415 185.839 3.33248 185.839C5.57615 185.839 13.9734 182.243 31.3618 173.796C32.7806 173.12 32.8466 172.328 32.6652 171.784C32.4342 171.091 31.6258 170.744 30.8339 170.909H30.8669Z" fill="#A39D8F"/>
<path d="M217.224 106.156C215.805 103.269 214.534 100.366 213.38 97.4454C214.089 97.5114 214.584 97.5444 214.831 97.5609C215.343 97.6269 215.854 97.33 216.151 97C216.399 96.7031 216.531 96.3566 216.481 95.9772C216.333 95.0863 215.821 94.8223 212.291 94.5749C211.763 93.1396 211.251 91.6878 210.773 90.236C211.235 90.2855 211.532 90.302 211.598 90.3185C213.05 90.5 213.973 90.5495 214.402 90.5495C214.765 90.5825 215.178 90.401 215.508 90.038C215.871 89.6421 216.069 89.1637 216.036 88.6852C215.904 87.3654 214.996 87.1675 209.75 87.019C207.935 81.0304 206.55 74.9593 205.494 68.8057C206.896 68.7067 207.176 68.4592 207.473 67.9148C207.671 67.5354 207.556 67.0899 207.193 66.76C206.797 66.3805 206.104 66.1496 205.626 66.4465C205.461 66.5455 205.329 66.6115 205.147 66.6775C203.778 58.1152 202.986 49.388 202.541 40.5123C202.211 33.9463 201.716 27.3638 201.386 20.7648C201.485 19.9729 201.584 19.1975 201.666 18.4716C204.108 18.3066 205.857 18.5211 205.857 17.6467C205.873 17.0858 204.157 16.3599 201.947 16.0135C202.524 10.6517 202.722 7.03878 202.656 4.67963C202.656 4.43217 202.656 4.2012 202.623 3.95374C202.508 1.85855 202.128 0.967677 201.617 0.786204C201.518 0.753208 201.402 0.753208 201.287 0.786204C200.314 0.637725 199.307 1.00067 198.548 1.69357C198.185 1.69357 197.905 2.10601 197.707 2.8484C197.344 3.60729 197.195 4.48166 197.311 5.32303V5.47151C197.146 8.17711 197.245 12.087 197.459 16.3434C195.595 16.7888 194.094 17.5972 193.5 18.7026C192.609 20.5008 194.028 21.3917 194.556 21.6721C194.919 21.8701 195.793 20.5503 197.657 19.6429C197.822 22.1011 198.004 24.5922 198.185 26.9678C198.086 27.5947 198.004 28.2217 197.905 28.8486C196.915 35.2826 194.44 51.4502 190.679 67.0074C190.283 67.0074 189.92 67.0074 189.623 66.9909C187.858 66.9414 187.181 66.9249 186.802 67.6343C186.687 67.8653 186.703 68.1293 186.835 68.3437C187.148 68.8387 187.94 68.9376 190.2 68.9376C189.788 70.5874 189.376 72.2207 188.93 73.8209C186.505 82.4986 185.845 83.4885 186.687 83.9174C187.792 84.4289 188.864 80.7664 190.877 73.7055C191.355 72.0887 191.801 70.5049 192.246 68.9212H192.378H195.513C195.496 69.0366 195.463 69.1521 195.447 69.2676C195.447 69.2676 195.447 69.2676 195.463 69.2676C195.265 70.6204 195.034 71.7917 194.754 73.0455C194.374 74.7448 194.044 76.4605 193.665 78.1433C193.302 79.7436 192.956 81.3273 192.164 82.7626C191.982 83.0761 191.718 83.505 191.966 83.8514C192.164 84.1319 192.725 84.2804 193.055 84.2804C194.737 84.2969 195.249 81.3108 195.595 80.0735C196.09 78.2918 196.486 76.477 196.816 74.6458C196.899 74.1674 196.981 73.6725 197.063 73.194C197.146 72.6496 197.212 72.0887 197.278 71.5113C197.41 70.7689 197.723 69.0036 197.74 68.9212H198.565C200.066 68.9212 201.254 68.9212 202.227 68.9212C203.366 75.0253 204.85 81.0304 206.764 86.986C205.824 86.9695 204.801 86.9365 203.679 86.92C198.515 86.755 191.52 86.788 183.173 88.5368C179.807 89.2132 177.893 90.467 178.042 91.9023C178.091 92.2322 178.223 92.4467 178.438 92.5787C178.553 92.6447 178.652 92.6611 178.751 92.6611C178.966 92.6611 179.18 92.5457 179.411 92.4302C179.906 92.1662 180.945 91.6053 183.14 91.2259C183.288 91.1929 183.436 91.1764 183.585 91.1599C183.321 91.7043 183.041 92.4467 182.744 93.3705C182.661 93.3705 182.579 93.354 182.513 93.3211C182.364 93.849 182.199 94.3769 182.018 94.8883C180.714 95.1523 179.362 95.5812 178.9 96.2906C178.735 96.5381 178.669 96.835 178.735 97.165C178.801 97.4124 178.916 97.5939 179.098 97.7094C179.213 97.7754 179.329 97.8084 179.444 97.8084C179.626 97.8084 179.807 97.7424 180.005 97.6764C180.236 97.5939 180.582 97.4784 181.094 97.3465C180.599 98.5508 180.038 99.7386 179.494 100.91C178.108 103.879 176.607 106.783 174.94 109.604C173.835 111.468 172.68 113.696 171.014 115.131C170.618 115.461 170.271 115.444 169.793 115.626C169.546 115.725 169.315 115.906 169.216 116.154C169.1 116.467 169.216 116.83 169.447 117.045C169.678 117.276 170.024 117.358 170.354 117.342C171.443 117.276 172.334 116.418 173.06 115.675C173.934 114.768 174.693 113.745 175.419 112.722C177.299 110.033 178.949 107.179 180.467 104.275C181.721 101.883 182.892 99.4252 183.915 96.9175C190.992 96.2906 198.911 96.5216 202.739 96.6371L203.712 96.6701C206.154 96.7855 208.826 97.0165 210.476 97.165C211.697 100.102 213.017 103.022 214.485 105.925C219.698 116.269 224.268 120.921 225.687 120.377C226.776 119.965 223.427 118.793 217.24 106.189L217.224 106.156ZM198.086 66.826C198.581 63.7079 198.218 62.9655 197.69 62.7346C197.542 62.6686 197.294 62.6356 196.981 62.8171C196.453 63.0975 195.876 63.8729 195.744 64.3348C195.645 64.7308 195.744 65.0112 196.024 65.1597C196.024 65.2092 196.024 65.3412 196.024 65.5556C196.024 65.6381 195.958 66.0836 195.859 66.7765C195.81 66.7765 195.777 66.8095 195.727 66.8095C195.727 66.8095 195.694 66.8095 195.678 66.8095C195.678 66.8095 195.678 66.826 195.678 66.8425C195.348 66.8425 195.051 66.859 194.688 66.8755C194.209 66.892 193.615 66.9249 192.741 66.9414C195.546 56.548 197.476 46.8144 198.944 37.6088C198.977 38.2522 199.01 38.8461 199.043 39.341C199.439 48.7116 200.281 57.8348 201.815 66.7765L198.07 66.8095L198.086 66.826ZM207.358 94.2944L204.108 94.1294C199.175 93.8325 192.56 93.618 184.74 94.4594C185.284 93.3211 185.779 92.3477 185.895 91.7538C185.961 91.5063 185.944 91.1269 185.862 90.7639C192.246 89.9226 198.829 89.8566 202.211 89.8236H203.184C204.718 89.8236 206.335 89.9061 207.737 90.005C208.249 91.4733 208.793 92.9416 209.354 94.4099C208.744 94.3769 208.084 94.3439 207.358 94.3109V94.2944Z" fill="#A39D8F"/>
<path d="M199.588 100.613C187.544 97.033 179.988 112.673 178.768 116.748C178.207 118.579 178.058 119.074 178.735 119.321C179.411 119.569 179.51 119.321 180.533 116.913C180.797 116.319 181.061 115.675 181.308 115.131C181.325 115.098 183.107 111.204 186.62 107.74C190.332 104.077 194.242 102.576 198.251 103.286C208.315 105.051 215.689 117.572 216.003 118.117C216.778 119.437 217.025 119.882 217.372 119.882C217.471 119.882 217.586 119.849 217.735 119.767C218.312 119.486 218.048 118.876 217.966 118.661C217.916 118.513 212.093 104.308 199.604 100.58L199.588 100.613Z" fill="#A39D8F"/>
<path d="M115.087 74.0023C115.549 73.9858 115.978 74.0683 116.423 74.1838C116.803 74.2993 117.182 74.3983 117.083 74.8602C117.001 75.2727 116.786 75.6191 116.671 76.048C116.621 76.246 116.588 76.4275 116.341 76.411C116.209 76.411 116.11 76.345 115.994 76.2955C115.829 76.1965 115.664 76.0975 115.483 76.048C114.84 75.8666 114.015 76.048 113.85 76.7904C113.701 77.4833 113.883 78.2257 114.394 78.7042C115.236 79.4795 116.143 80.09 116.869 80.9973C117.545 81.8222 117.991 82.7461 117.908 83.8514C117.908 83.9834 117.892 84.1154 117.875 84.2473C117.809 84.6268 117.677 84.9897 117.512 85.3197C116.638 86.9859 114.609 87.2994 112.926 86.9034C112.546 86.821 111.54 86.656 111.557 86.1281C111.573 85.6661 111.722 85.2702 111.854 84.8413C111.887 84.7423 111.92 84.6268 111.986 84.5113C112.101 84.3133 112.315 84.3628 112.48 84.4783C112.777 84.6928 113.074 84.9402 113.421 85.0557C114.097 85.2702 115.104 85.1712 115.533 84.4948C115.895 83.8844 115.697 82.7461 115.203 82.2511C114.856 81.9047 114.46 81.6572 114.114 81.3273C113.734 80.9973 113.388 80.6344 113.041 80.2879C112.662 79.8755 112.216 79.4465 111.969 78.9516C111.722 78.4897 111.672 77.9618 111.705 77.4338C111.755 76.7574 111.903 76.0975 112.282 75.5366C112.711 74.9097 113.355 74.4313 114.048 74.2003C114.378 74.1013 114.708 74.0518 115.021 74.0353L115.087 74.0023Z" fill="#A39D8F"/>
<path d="M124.59 85.1052C124.557 83.5544 124.639 77.8132 124.639 76.5759C124.639 76.5264 124.623 76.4769 124.623 76.4275C124.59 76.246 124.474 76.1965 124.293 76.1965C124.012 76.18 123.039 76.18 122.791 76.18C122.379 76.18 122.395 75.7016 122.395 75.2231C122.395 74.4642 122.379 74.1178 122.808 74.1178C123.369 74.1178 123.831 74.1343 124.408 74.1343C125.563 74.1178 128.351 74.1178 128.648 74.1178C129.06 74.1178 128.929 74.7777 128.929 75.1406C128.929 75.5696 129.011 76.18 128.648 76.18H127.13C126.784 76.18 126.701 76.2625 126.701 76.5264L126.652 86.1445C126.668 86.4415 126.734 86.9859 126.404 86.9859H124.854C124.606 86.9859 124.59 86.9529 124.59 86.7054C124.573 86.1775 124.573 85.6331 124.557 85.1052H124.59Z" fill="#A39D8F"/>
<path d="M134.125 83.4554C134.092 82.4986 134.158 78.1927 134.158 76.9884C134.158 76.279 134.142 75.5861 134.175 74.8932C134.191 74.0188 134.241 74.0683 134.967 74.0683C135.462 74.0683 137.524 74.0683 138.035 74.0518C138.547 74.0188 138.679 74.0188 139.19 74.0023C139.504 74.0023 139.586 74.0518 139.619 74.3323C139.668 74.8272 139.619 75.3386 139.652 75.8501C139.668 76.18 139.569 76.1635 139.24 76.1965H136.814C136.55 76.2295 136.484 76.279 136.468 76.5594C136.402 77.2358 136.336 77.9617 136.402 78.6381C136.418 78.8691 136.451 78.9021 136.699 78.9021C137.425 78.8526 137.771 78.9516 138.497 78.9021C138.695 78.8856 138.877 78.8691 139.058 78.8691C139.355 78.8691 139.454 78.9681 139.487 79.265L139.536 79.7765C139.536 80.1394 139.503 80.1559 139.503 80.5189C139.503 80.8818 139.256 81.1128 138.926 81.0633H136.781C136.435 81.0633 136.402 81.1788 136.402 81.5417C136.402 82.2181 136.385 83.0595 136.385 83.7029C136.385 84.5113 136.27 84.4123 137.029 84.3958C137.491 84.3958 138.646 84.4288 138.877 84.4123C139.223 84.3958 139.619 84.5773 139.619 85.1547C139.619 85.5506 139.602 85.6826 139.635 86.0126C139.635 86.524 139.52 86.7219 139.174 86.7879C138.794 86.8539 138.629 86.8209 138.25 86.8374C137.326 86.8704 136.402 86.8044 135.462 86.8374C135.099 86.8374 134.752 86.8209 134.389 86.7384C134.224 86.7054 134.175 86.656 134.175 86.458C134.142 85.9136 134.109 85.3527 134.092 84.8082C134.076 84.3628 134.092 83.9174 134.092 83.4884H134.109L134.125 83.4554Z" fill="#A39D8F"/>
<path d="M146.218 86.8375C145.69 86.854 145.294 86.854 144.865 86.854C144.799 86.854 144.717 86.8705 144.651 86.8375C144.552 86.821 145.377 83.2245 145.492 82.7296C145.839 81.3273 146.102 79.958 146.416 78.5227C146.663 77.3844 147.274 74.6622 147.307 74.4148C147.34 74.1508 147.323 74.0848 147.554 74.0848C148.148 74.1178 148.775 74.0848 149.352 74.0848C149.633 74.0848 149.517 74.1013 149.649 74.4148C149.732 74.9262 151.695 84.2143 151.761 84.4288C151.91 84.9072 151.943 85.4022 152.108 85.8806C152.157 86.0126 152.438 86.821 152.042 86.821C151.745 86.8375 150.755 86.8375 150.474 86.8375C150.276 86.8375 150.26 86.854 150.177 86.6395C150.078 86.3425 149.979 85.9796 149.88 85.6991L149.765 85.3032C149.715 85.1547 149.616 85.0722 149.418 85.0722C148.561 85.0557 148.132 84.9897 147.274 85.0887C147.109 85.1217 147.043 85.1382 147.026 85.3527C146.993 85.6001 146.894 86.854 146.548 86.854C146.399 86.854 146.234 86.854 146.185 86.8375H146.218ZM148.462 82.944C148.61 82.944 148.775 82.9605 148.924 82.9605C149.237 82.9605 149.303 82.9605 149.155 82.3336C149.006 81.6242 148.891 81.0798 148.742 80.4364C148.676 80.2384 148.61 79.7105 148.528 79.5125C148.511 79.496 148.478 79.463 148.445 79.463C148.429 79.463 148.396 79.496 148.379 79.529C148.28 80.024 147.818 82.0697 147.719 82.4491C147.604 82.944 147.62 82.944 148.099 82.944H148.462Z" fill="#A39D8F"/>
<path d="M159.762 83.8679C159.762 83.8679 159.779 83.9999 159.779 84.0659C159.779 84.9733 159.713 85.6496 159.713 86.3755C159.713 86.92 159.664 86.953 159.334 86.953C158.872 86.953 158.179 86.92 157.717 86.953C157.552 86.953 157.502 86.8375 157.502 86.623C157.387 84.5443 157.469 77.9948 157.469 76.9389C157.469 76.213 157.469 74.5963 157.486 74.5468C157.535 74.2663 157.568 74.0684 157.948 74.0684C158.36 74.0684 158.921 74.0684 159.334 74.0849C159.713 74.1014 159.779 74.1344 159.795 74.5138C159.828 75.1572 159.664 78.2917 159.68 79.2486C159.68 79.2816 159.713 79.3311 159.713 79.3311C159.762 79.3311 159.812 79.3146 159.828 79.2816C160.059 78.9021 162.353 74.6953 162.567 74.2663C162.65 74.1179 162.831 74.0849 162.996 74.0849C163.375 74.0849 164.563 74.0684 164.877 74.0849C164.976 74.0849 165.042 74.1673 165.025 74.2498C164.959 74.4808 164.893 74.6788 164.778 74.8767C164.332 75.6686 164.019 76.213 163.474 77.0874C162.98 77.8628 162.551 78.6877 162.138 79.4961C162.056 79.6775 162.006 79.8755 161.973 80.0735C161.957 80.1395 161.99 80.2385 162.023 80.3209C162.369 80.8819 162.666 81.5253 162.996 82.1027C163.112 82.3171 165.157 85.9796 165.306 86.2106C165.405 86.359 165.801 86.953 165.207 86.953C164.613 86.953 164.101 86.92 163.524 86.953C163.441 86.953 163.359 86.953 163.26 86.9365C162.947 86.92 160.373 81.9212 159.828 81.1953C159.812 81.1788 159.746 81.1458 159.713 81.1458C159.697 81.1458 159.664 81.2118 159.664 81.2613C159.647 81.6077 159.73 83.241 159.73 83.8349L159.762 83.8679Z" fill="#A39D8F"/>
<path d="M228.227 83.4554C228.178 82.4986 228.244 78.1927 228.244 76.9884C228.244 76.279 228.244 75.5861 228.26 74.8932C228.277 74.0188 228.343 74.0683 229.052 74.0683C229.547 74.0683 231.626 74.0683 232.137 74.0518C232.649 74.0188 232.781 74.0188 233.292 74.0023C233.606 74.0023 233.672 74.0518 233.705 74.3323C233.771 74.8272 233.705 75.3386 233.738 75.8501C233.771 76.18 233.672 76.1635 233.325 76.1965H230.9C230.636 76.2295 230.587 76.279 230.554 76.5594C230.488 77.2358 230.438 77.9617 230.488 78.6381C230.504 78.8691 230.537 78.9021 230.785 78.9021C231.527 78.8526 232.22 78.9516 232.962 78.9021C233.127 78.8856 232.962 78.8691 233.16 78.8691C233.457 78.8691 233.556 78.9681 233.589 79.265C233.606 79.43 233.639 79.6115 233.639 79.7765C233.655 80.1394 233.606 80.1559 233.606 80.5189C233.606 80.8818 233.738 81.1128 233.375 81.0633H230.867C230.537 81.0633 230.488 81.1788 230.488 81.5417C230.488 82.2181 230.488 83.0595 230.471 83.7029C230.471 84.5113 230.488 84.5773 230.488 85.1382C230.488 85.5341 230.471 85.6661 230.504 85.9961C230.504 86.6395 230.504 86.7879 229.58 86.8209C229.217 86.8209 228.854 86.8044 228.508 86.7219C228.326 86.689 228.293 86.6395 228.277 86.4415C228.244 85.8971 228.227 85.3361 228.211 84.7917C228.194 84.3463 228.211 83.9009 228.211 83.4719H228.227V83.4554Z" fill="#A39D8F"/>
<path d="M241.029 85.6826C241.029 86.359 241.161 86.9694 240.782 86.9694C240.287 86.9694 239.99 86.9859 239.512 86.9859C239.396 86.9859 239.248 86.9694 239.132 86.9694C238.918 86.9694 238.885 86.9199 238.885 86.689C238.885 85.9301 238.918 80.6839 238.918 78.6877C238.901 77.3843 238.868 76.0645 238.901 74.7447V74.5303C238.918 74.2333 239.099 74.0848 239.363 74.0848C239.941 74.0848 240.271 74.0848 240.732 74.1013C241.26 74.1178 241.772 74.0683 242.316 74.1013C243.191 74.1508 243.933 74.5468 244.494 75.2232C245.236 76.1305 245.484 77.3679 245.319 78.5062C245.17 79.661 244.428 80.4034 243.603 81.1458C243.57 81.1953 243.306 81.3108 243.356 81.3933C243.389 81.5417 244.411 83.5379 244.576 83.8844C244.791 84.3298 245.781 86.1446 245.913 86.656C245.962 86.854 245.913 86.9859 245.682 86.9859H243.801C243.702 86.9694 243.57 87.0024 243.504 86.9034C243.455 86.854 243.257 86.3095 243.174 86.1116C242.547 84.8083 241.953 83.4719 241.277 82.1356C241.26 82.0862 241.227 82.0532 241.161 82.0532C241.095 82.0532 241.062 82.1521 241.046 82.2016C241.029 82.4326 241.029 85.2372 241.029 85.6826ZM241.029 78.9846C241.029 78.9846 241.046 79.5125 241.046 79.793C241.062 80.2054 241.541 80.1229 241.805 80.057C242.234 79.9415 242.613 79.7105 242.828 79.3311C243.29 78.5227 243.356 77.0874 242.498 76.4935C242.201 76.2955 241.541 76.048 241.211 76.2955C240.963 76.477 241.062 77.0049 241.046 77.2524V78.9846H241.029Z" fill="#A39D8F"/>
<path d="M253.304 82.5315C253.304 83.3564 253.353 86.491 253.337 86.6229C253.254 86.8539 253.073 86.9034 252.875 86.9199C252.314 86.9364 251.769 86.9364 251.208 86.9694C251.077 86.9694 251.027 86.8869 251.011 86.8044C250.994 86.5569 250.978 86.326 250.994 86.0785C251.027 85.3856 250.961 82.2676 250.945 81.5747C250.928 80.8818 250.978 76.1305 250.978 74.4477C250.978 74.1178 251.11 74.0353 251.439 74.0518C251.934 74.0518 252.165 74.0518 252.66 74.0683C253.007 74.0848 253.254 74.0518 253.254 74.7117C253.254 75.3056 253.287 75.9655 253.287 76.5594C253.271 78.5061 253.254 80.5683 253.304 82.5315Z" fill="#A39D8F"/>
<path d="M260.496 85.1052C260.463 83.5544 260.546 77.8132 260.546 76.5759C260.546 76.5264 260.529 76.4769 260.529 76.4275C260.496 76.246 260.381 76.1965 260.2 76.1965C259.919 76.18 258.946 76.18 258.698 76.18C258.286 76.18 258.302 75.7016 258.302 75.2231C258.302 74.4642 258.286 74.1178 258.715 74.1178C259.276 74.1178 259.738 74.1343 260.315 74.1343C261.47 74.1178 264.258 74.1178 264.555 74.1178C264.967 74.1178 264.835 74.7777 264.835 75.1406C264.835 75.5696 264.918 76.18 264.555 76.18H263.037C262.691 76.18 262.608 76.2625 262.608 76.5264L262.559 86.1445C262.575 86.4415 262.641 86.9859 262.311 86.9859H260.76C260.513 86.9859 260.496 86.9529 260.496 86.7054C260.48 86.1775 260.48 85.6331 260.464 85.1052H260.496Z" fill="#A39D8F"/>
<path d="M270.032 83.4554C269.999 82.4986 270.065 78.1927 270.065 76.9884C270.065 76.279 270.049 75.5861 270.082 74.8932C270.098 74.0188 270.148 74.0683 270.874 74.0683C271.369 74.0683 273.431 74.0683 273.942 74.0518C274.454 74.0188 274.586 74.0188 275.097 74.0023C275.41 74.0023 275.493 74.0518 275.526 74.3323C275.575 74.8272 275.526 75.3386 275.559 75.8501C275.575 76.18 275.476 76.1635 275.147 76.1965H272.721C272.457 76.2295 272.391 76.279 272.375 76.5594C272.309 77.2358 272.243 77.9617 272.309 78.6381C272.325 78.8691 272.358 78.9021 272.606 78.9021C273.332 78.8526 273.678 78.9516 274.404 78.9021C274.602 78.8856 274.784 78.8691 274.965 78.8691C275.262 78.8691 275.361 78.9681 275.394 79.265L275.443 79.7765C275.443 80.1394 275.41 80.1559 275.41 80.5189C275.41 80.8818 275.163 81.1128 274.833 81.0633H272.688C272.342 81.0633 272.309 81.1788 272.309 81.5417C272.309 82.2181 272.292 83.0595 272.292 83.7029C272.292 84.5113 272.177 84.4123 272.936 84.3958C273.398 84.3958 274.553 84.4288 274.784 84.4123C275.13 84.3958 275.526 84.5773 275.526 85.1547C275.526 85.5506 275.509 85.6826 275.542 86.0126C275.542 86.524 275.427 86.7219 275.081 86.7879C274.701 86.8539 274.536 86.8209 274.157 86.8374C273.233 86.8704 272.309 86.8044 271.369 86.8374C271.006 86.8374 270.659 86.8209 270.296 86.7384C270.131 86.7054 270.082 86.656 270.082 86.458C270.049 85.9136 270.016 85.3527 269.999 84.8082C269.983 84.3628 269.999 83.9174 269.999 83.4884H270.016L270.032 83.4554Z" fill="#A39D8F"/>
<path d="M284.055 74.0023C284.517 73.9858 284.946 74.0683 285.391 74.1838C285.771 74.2993 286.15 74.3983 286.051 74.8602C285.969 75.2727 285.754 75.6191 285.639 76.048C285.589 76.246 285.556 76.4275 285.309 76.411C285.177 76.411 285.078 76.345 284.962 76.2955C284.797 76.1965 284.633 76.0975 284.451 76.048C283.808 75.8666 282.983 76.048 282.818 76.7904C282.669 77.4833 282.851 78.2257 283.362 78.7042C284.204 79.4795 285.111 80.09 285.837 80.9973C286.513 81.8222 286.959 82.7461 286.876 83.8514C286.876 83.9834 286.86 84.1154 286.843 84.2473C286.777 84.6268 286.645 84.9897 286.48 85.3197C285.606 86.9859 283.577 87.2994 281.894 86.9034C281.514 86.821 280.508 86.656 280.525 86.1281C280.541 85.6661 280.69 85.2702 280.822 84.8413C280.855 84.7423 280.888 84.6268 280.954 84.5113C281.069 84.3133 281.284 84.3628 281.448 84.4783C281.745 84.6928 282.042 84.9402 282.389 85.0557C283.065 85.2702 284.072 85.1712 284.501 84.4948C284.863 83.8844 284.666 82.7461 284.171 82.2511C283.824 81.9047 283.428 81.6572 283.082 81.3273C282.702 80.9973 282.356 80.6344 282.009 80.2879C281.63 79.8755 281.185 79.4465 280.937 78.9516C280.69 78.4897 280.64 77.9618 280.673 77.4338C280.723 76.7574 280.871 76.0975 281.251 75.5366C281.679 74.9097 282.323 74.4313 283.016 74.2003C283.346 74.1013 283.676 74.0518 283.989 74.0353L284.055 74.0023Z" fill="#A39D8F"/>
</g>
<defs>
<clipPath id="clip0_37_7520">
<rect width="400" height="192.56" fill="white" transform="translate(0 0.720215)"/>
</clipPath>
</defs>
</svg>
