<svg width="50" height="50" viewBox="0 0 50 50" fill="none" xmlns="http://www.w3.org/2000/svg">
    <path d="M12.4998 37.5001H37.4998V12.5001H12.4998V37.5001ZM29.1665 41.6667H20.8332V45.8334H16.6665V41.6667H10.4165C9.86397 41.6667 9.33407 41.4473 8.94336 41.0566C8.55266 40.6659 8.33317 40.1359 8.33317 39.5834V33.3334H4.1665V29.1667H8.33317V20.8334H4.1665V16.6667H8.33317V10.4167C8.33317 9.86421 8.55266 9.33431 8.94336 8.94361C9.33407 8.55291 9.86397 8.33341 10.4165 8.33341H16.6665V4.16675H20.8332V8.33341H29.1665V4.16675H33.3332V8.33341H39.5832C40.1357 8.33341 40.6656 8.55291 41.0563 8.94361C41.447 9.33431 41.6665 9.86421 41.6665 10.4167V16.6667H45.8332V20.8334H41.6665V29.1667H45.8332V33.3334H41.6665V39.5834C41.6665 40.1359 41.447 40.6659 41.0563 41.0566C40.6656 41.4473 40.1357 41.6667 39.5832 41.6667H33.3332V45.8334H29.1665V41.6667ZM16.6665 16.6667H33.3332V33.3334H16.6665V16.6667Z" fill="#09121F"/>
</svg>
