<svg width="50" height="50" viewBox="0 0 50 50" fill="none" xmlns="http://www.w3.org/2000/svg">
    <path d="M20.7777 37.4999H29.2235C29.4985 34.9958 30.7756 32.9291 32.8485 30.6729C33.0839 30.4187 34.5818 28.8666 34.7589 28.6458C36.2304 26.8075 37.1526 24.591 37.4196 22.2516C37.6865 19.9121 37.2873 17.5448 36.2678 15.4223C35.2483 13.2998 33.65 11.5084 31.6571 10.2545C29.6641 9.00051 27.3575 8.33496 25.0028 8.33445C22.6482 8.33395 20.3413 8.99852 18.3478 10.2516C16.3543 11.5048 14.7553 13.2955 13.7349 15.4175C12.7145 17.5396 12.3142 19.9067 12.5802 22.2463C12.8461 24.5858 13.7674 26.8027 15.2381 28.6416C15.4173 28.8645 16.9193 30.4187 17.1506 30.6708C19.2256 32.9291 20.5027 34.9958 20.7777 37.4999V37.4999ZM29.1673 41.6666H20.8339V43.7499H29.1673V41.6666ZM11.9881 31.2499C10.026 28.7985 8.79631 25.8426 8.44072 22.7228C8.08513 19.603 8.61809 16.4462 9.9782 13.6161C11.3383 10.7859 13.4702 8.3976 16.1284 6.72616C18.7866 5.05473 21.8628 4.1682 25.0028 4.1687C28.1428 4.1692 31.2188 5.05672 33.8765 6.729C36.5341 8.40129 38.6653 10.7903 40.0245 13.6209C41.3837 16.4515 41.9156 19.6084 41.559 22.7281C41.2024 25.8478 39.9718 28.8033 38.0089 31.2541C36.7173 32.8624 33.3339 35.4166 33.3339 38.5416V43.7499C33.3339 44.855 32.8949 45.9148 32.1135 46.6962C31.3321 47.4776 30.2723 47.9166 29.1673 47.9166H20.8339C19.7289 47.9166 18.669 47.4776 17.8876 46.6962C17.1062 45.9148 16.6673 44.855 16.6673 43.7499V38.5416C16.6673 35.4166 13.2818 32.8624 11.9881 31.2499ZM27.0839 20.8416H32.2923L22.9173 33.3416V25.0083H17.7089L27.0839 12.4999V20.8437V20.8416Z" fill="#09121F"/>
</svg>
