<svg width="80" height="66" viewBox="0 0 80 66" fill="none" xmlns="http://www.w3.org/2000/svg">
<path fill-rule="evenodd" clip-rule="evenodd" d="M49.9746 57.4071C49.2179 55.8621 48.5382 54.3066 47.9146 52.744C48.2965 52.7826 48.5628 52.8001 48.6924 52.8036C48.9657 52.8386 49.2389 52.6775 49.3931 52.5023C49.5297 52.3482 49.5928 52.159 49.5682 51.9593C49.4877 51.4793 49.2144 51.3427 47.3226 51.2131C47.0353 50.4423 46.7655 49.668 46.5063 48.8903C46.748 48.9113 46.9091 48.9288 46.9442 48.9323C47.7184 49.0339 48.2124 49.0549 48.4436 49.0549C48.6328 49.0725 48.8571 48.9709 49.0392 48.7782C49.2354 48.5715 49.3405 48.3087 49.323 48.0495C49.2564 47.3418 48.766 47.2332 45.9597 47.1561C44.9893 43.9505 44.2466 40.6993 43.679 37.4061C44.4252 37.35 44.5794 37.2239 44.737 36.9331C44.8386 36.7334 44.7826 36.4952 44.5864 36.313C44.3727 36.1133 44.0048 35.9872 43.7456 36.1413C43.6615 36.1904 43.5844 36.2324 43.4898 36.264C42.7541 31.678 42.3372 27.0079 42.0955 22.2573C42.0065 20.5075 41.8975 18.7534 41.7885 16.998L41.7885 16.9977L41.7885 16.9974C41.6785 15.2278 41.5685 13.4567 41.4789 11.6875C41.5314 11.2601 41.5804 10.8537 41.626 10.4613C41.9343 10.4406 42.2219 10.4313 42.4815 10.4228C43.3221 10.3955 43.8682 10.3777 43.8682 10.0163C43.8787 9.71855 42.9608 9.32968 41.7766 9.13699C42.4248 3.09009 42.176 1.20174 41.598 0.988034C41.5419 0.967013 41.4824 0.97402 41.4228 0.995041C40.9008 0.917966 40.3613 1.10715 39.9584 1.47851C39.7622 1.47501 39.615 1.69923 39.5064 2.09511C39.3137 2.49801 39.2332 2.96747 39.2962 3.41941L39.3032 3.49999C39.2051 4.9469 39.2577 7.03844 39.3768 9.31566C38.3783 9.55389 37.576 9.98481 37.2607 10.5804C36.7808 11.5403 37.5445 12.0238 37.8248 12.1709C37.9146 12.2183 38.0644 12.0922 38.2995 11.8945C38.569 11.6678 38.9505 11.3468 39.4819 11.0849C39.566 12.3987 39.6641 13.73 39.7622 15.0087L39.762 15.0097C39.713 15.3457 39.664 15.6817 39.6115 16.0142L39.6009 16.0835C39.0649 19.5729 37.7449 28.1668 35.7473 36.4391C35.5335 36.4356 35.3444 36.4321 35.1762 36.4251C34.2268 36.4006 33.8729 36.3936 33.6697 36.765C33.6102 36.8911 33.6172 37.0312 33.6872 37.1433C33.8554 37.4061 34.2828 37.4621 35.4915 37.4621C35.2708 38.3415 35.0466 39.2173 34.8118 40.0792C34.4487 41.3832 34.1591 42.3632 33.9403 43.1033C33.3805 44.9978 33.2852 45.3202 33.6102 45.4815C34.2057 45.7582 34.7733 43.7963 35.8524 40.0196C36.1116 39.1543 36.3463 38.3065 36.5811 37.4586H36.6511H38.3293C38.3244 37.4878 38.3188 37.5162 38.3132 37.5448C38.3066 37.5782 38.2999 37.612 38.2942 37.6478H38.3047C38.1996 38.3695 38.077 38.9966 37.9264 39.6693C37.8318 40.0935 37.7432 40.5185 37.6547 40.9432L37.6547 40.9432L37.6547 40.9433L37.6547 40.9434L37.6547 40.9434L37.6546 40.9435L37.6546 40.9436L37.6546 40.9436L37.6546 40.9437L37.6546 40.9438L37.6546 40.9438L37.6546 40.9439C37.5531 41.4309 37.4517 41.9174 37.3413 42.402L37.3152 42.5158C37.1284 43.3319 36.9438 44.1387 36.532 44.8719L36.5258 44.8827C36.4315 45.0467 36.3 45.2752 36.4234 45.4534C36.5285 45.6076 36.8333 45.6847 37.005 45.6847C37.7934 45.6939 38.1037 44.4673 38.2933 43.7175C38.3202 43.6111 38.3447 43.5143 38.3678 43.432C38.6341 42.4755 38.8443 41.5051 39.0194 40.5276C39.065 40.2684 39.1105 40.0091 39.1491 39.7464C39.1911 39.4591 39.2297 39.1578 39.2682 38.846C39.3348 38.4501 39.5099 37.5007 39.5204 37.4551H39.9619C40.7677 37.4551 41.4018 37.4551 41.9203 37.4516C42.5264 40.7168 43.3216 43.9329 44.3481 47.1246C44.0336 47.118 43.701 47.11 43.347 47.1015C43.1373 47.0965 42.92 47.0912 42.6945 47.086C39.9303 46.9949 36.1817 47.0125 31.7183 47.9514C29.9176 48.3157 28.8911 48.9849 28.9751 49.7556C28.9997 49.9273 29.0697 50.0499 29.1853 50.1165C29.2449 50.1515 29.301 50.1655 29.357 50.1655C29.4726 50.1655 29.5847 50.106 29.7074 50.0394C29.9736 49.8958 30.5307 49.6015 31.7078 49.3948C31.7787 49.3824 31.8496 49.3728 31.9181 49.3635L31.946 49.3597C31.8024 49.6505 31.6553 50.0464 31.4976 50.5404C31.4874 50.5388 31.4772 50.5374 31.4672 50.5361L31.4671 50.5361L31.467 50.536L31.4667 50.536C31.4319 50.5313 31.3986 50.5267 31.3715 50.5159C31.2944 50.7996 31.2033 51.0764 31.1087 51.3567C30.4115 51.4968 29.6898 51.7281 29.4411 52.1099C29.35 52.2466 29.3185 52.4042 29.35 52.5794C29.3815 52.716 29.4481 52.8141 29.5427 52.8737C29.6058 52.9122 29.6653 52.9262 29.7284 52.9262C29.8194 52.9262 29.9137 52.8938 30.0206 52.857L30.0332 52.8527L30.0656 52.8415C30.1877 52.7994 30.3645 52.7384 30.6147 52.6775C30.345 53.3221 30.0542 53.9597 29.7599 54.5868C29.0207 56.1739 28.2149 57.7329 27.3285 59.2394C27.252 59.3697 27.1749 59.5033 27.0967 59.6387C26.5739 60.5442 26.0032 61.5328 25.223 62.2033C25.0812 62.3238 24.949 62.3582 24.8005 62.3969C24.7289 62.4156 24.6535 62.4352 24.5713 62.466C24.4382 62.5151 24.3121 62.6132 24.2595 62.7463C24.1965 62.911 24.2595 63.1072 24.3857 63.2263C24.5153 63.3454 24.6975 63.3979 24.8726 63.3874C25.4577 63.3524 25.9342 62.897 26.316 62.4941C26.782 62.0036 27.1884 61.4606 27.5773 60.9105C28.5898 59.4741 29.4656 57.9431 30.2819 56.3876C30.9546 55.1054 31.5677 53.7916 32.1072 52.4463C35.8751 52.1119 40.0998 52.2345 42.1667 52.2945L42.2041 52.2956L42.7261 52.3096C44.0363 52.3657 45.4622 52.4918 46.3521 52.5759C47.0002 54.1454 47.7114 55.7079 48.4962 57.267C51.2814 62.7989 53.7338 65.2898 54.4941 65.0025C54.7104 64.9204 54.5985 64.7826 54.2025 64.2945C53.5338 63.4705 52.0551 61.6482 49.9781 57.4106L49.9746 57.4071ZM39.7306 36.3586C39.9969 34.6909 39.8007 34.288 39.5204 34.1689C39.4434 34.1339 39.3137 34.1164 39.1386 34.211C38.8583 34.3616 38.55 34.775 38.4799 35.0238C38.4239 35.234 38.4729 35.3811 38.6271 35.4652C38.6306 35.4967 38.6341 35.5598 38.6271 35.6789C38.6271 35.7279 38.5955 35.9627 38.536 36.3375L38.5259 36.3412L38.5209 36.3431L38.5208 36.3432L38.5206 36.3432C38.5055 36.3491 38.4904 36.3551 38.4694 36.3551C38.4677 36.3551 38.4659 36.3548 38.4642 36.3545L38.4589 36.3533C38.4554 36.3524 38.4519 36.3516 38.4484 36.3516V36.3691C38.2732 36.3726 38.1086 36.3796 37.9194 36.3901C37.6636 36.4041 37.3448 36.4181 36.8789 36.4286C38.3783 30.8652 39.4083 25.6556 40.2001 20.7298C40.2211 21.0731 40.2386 21.392 40.2491 21.6617C40.4594 26.6786 40.9078 31.5589 41.7346 36.3445L39.7341 36.3621L39.7306 36.3586ZM44.695 51.0624L42.9573 50.9713C40.3157 50.8137 36.7738 50.7016 32.5942 51.15L32.6397 51.0554L32.7008 50.9287L32.7008 50.9287C32.9477 50.4175 33.1582 49.9819 33.2073 49.6996C33.2423 49.5699 33.2353 49.3668 33.1898 49.1671C36.6091 48.7151 40.1265 48.6836 41.9378 48.6696L42.4633 48.6626C43.2866 48.6731 44.1485 48.7151 44.8982 48.7642C45.1715 49.5524 45.4622 50.3372 45.767 51.1185L45.5354 51.1063L45.3416 51.0962L45.3401 51.0961C45.1369 51.0856 44.9242 51.0746 44.6985 51.0624H44.695ZM40.5329 54.4362C34.0901 52.5163 30.0437 60.8965 29.385 63.0721L29.3826 63.0802C29.0868 64.058 29.0077 64.3197 29.3675 64.4525C29.7238 64.5817 29.7806 64.4498 30.3294 63.1749L30.3345 63.1632C30.4711 62.8444 30.6182 62.5046 30.7514 62.2138L30.7537 62.2089C30.8076 62.0946 31.7626 60.0714 33.5927 58.2619C35.5756 56.3035 37.6706 55.5012 39.8182 55.8796C45.203 56.829 49.1513 63.5311 49.316 63.8148C49.7294 64.526 49.866 64.7608 50.0482 64.7608C50.1043 64.7608 50.1638 64.7398 50.2374 64.7012C50.5457 64.5471 50.4091 64.2247 50.36 64.1126C50.332 64.0356 47.2175 56.4296 40.5294 54.4362H40.5329ZM2.19501 37.1994C2.00232 37.1468 1.82014 37.1118 1.62395 37.1188V37.1223C1.48381 37.1293 1.34718 37.1538 1.20704 37.1959C0.905749 37.301 0.635985 37.5042 0.453807 37.7669C0.29265 38.0052 0.226085 38.2924 0.205065 38.5762C0.187548 38.7934 0.212071 39.0212 0.31367 39.2173C0.404588 39.3962 0.551976 39.5531 0.692118 39.7022L0.692381 39.7024C0.719556 39.7313 0.746457 39.76 0.77262 39.7884C0.91626 39.9426 1.0634 40.0932 1.22456 40.2333C1.291 40.2965 1.36268 40.3537 1.4351 40.4115C1.51926 40.4787 1.60442 40.5466 1.68351 40.6257C1.89722 40.8359 1.9778 41.3194 1.82365 41.5822C1.64147 41.8729 1.21055 41.9185 0.926768 41.8239C0.814462 41.7828 0.710723 41.7075 0.610527 41.6347L0.610518 41.6347C0.582565 41.6144 0.554889 41.5942 0.527379 41.5751C0.453807 41.5226 0.366222 41.5016 0.317174 41.5892C0.290247 41.6281 0.276096 41.6721 0.263809 41.7103L0.257616 41.7293C0.245764 41.7712 0.233199 41.812 0.220765 41.8524C0.178069 41.991 0.13692 42.1247 0.131493 42.2793C0.125091 42.4874 0.484281 42.5609 0.66926 42.5988L0.669864 42.5989L0.670096 42.599L0.670942 42.5991L0.672029 42.5994L0.672965 42.5996C0.688989 42.6028 0.703643 42.6058 0.716564 42.6087C1.43476 42.7768 2.2931 42.6437 2.66797 41.936C2.74154 41.7924 2.79059 41.6382 2.82212 41.4771L2.82489 41.4538C2.83086 41.4043 2.83613 41.3605 2.83613 41.3089C2.86416 40.8394 2.67497 40.447 2.3912 40.0967C2.18673 39.8405 1.94442 39.638 1.69917 39.4329L1.69915 39.4329L1.69903 39.4328C1.57874 39.3323 1.45775 39.2311 1.34017 39.1228C1.11946 38.9196 1.03888 38.5972 1.10544 38.3065C1.17201 37.9911 1.52936 37.9106 1.79912 37.9911C1.87286 38.0104 1.93194 38.0443 1.99782 38.0821L1.99787 38.0821L1.99796 38.0822L1.99799 38.0822L2.01633 38.0927C2.02509 38.0968 2.03372 38.1011 2.04236 38.1054C2.07869 38.1235 2.11537 38.1418 2.16347 38.1418C2.26247 38.1484 2.28065 38.0773 2.3 38.0017L2.30361 37.9876C2.32648 37.9084 2.35599 37.8357 2.38491 37.7645C2.42244 37.6721 2.459 37.5821 2.47878 37.4832C2.51555 37.296 2.37058 37.2523 2.21724 37.2061L2.19501 37.1994ZM5.6669 41.8379C5.65759 41.4006 5.66991 40.1755 5.67924 39.2478C5.68396 38.7783 5.68792 38.3849 5.68792 38.2084C5.68792 38.1956 5.68603 38.1838 5.68421 38.1725C5.68253 38.162 5.68091 38.1519 5.68091 38.1418C5.6669 38.0612 5.61435 38.0402 5.54077 38.0402C5.42516 38.0332 5.00825 38.0332 4.90666 38.0332C4.73799 38.0332 4.73822 37.8448 4.73847 37.6463L4.73849 37.6233L4.73847 37.5888C4.73823 37.2907 4.73813 37.1573 4.91366 37.1573C5.03453 37.1573 5.14401 37.1591 5.25349 37.1608C5.36298 37.1626 5.47246 37.1643 5.59333 37.1643C6.0838 37.1573 7.27497 37.1573 7.39759 37.1573C7.53879 37.1573 7.52747 37.3372 7.51777 37.4913C7.51544 37.5284 7.5132 37.564 7.5132 37.5953C7.5132 37.6236 7.51404 37.6538 7.51491 37.6847C7.5196 37.8527 7.52484 38.0402 7.39759 38.0402H6.75646C6.60932 38.0402 6.57428 38.0752 6.57428 38.1838L6.55326 42.2758L6.55543 42.3107C6.56389 42.4402 6.57648 42.6332 6.45166 42.6332H5.79302C5.69142 42.6332 5.68441 42.6192 5.68441 42.5176C5.6809 42.405 5.67915 42.2916 5.67739 42.1777C5.67564 42.0647 5.67389 41.9513 5.6704 41.8379H5.6669ZM9.73066 39.2759L9.73066 39.2762V39.2763L9.73066 39.2765V39.2765V39.2766V39.2767C9.72347 39.9933 9.71471 40.8663 9.72386 41.1337H9.72035H9.71335C9.71335 41.1952 9.71257 41.257 9.7118 41.3191V41.3192V41.3193V41.3194V41.3195V41.3196V41.3197C9.71024 41.445 9.70866 41.5714 9.71335 41.6978C9.71856 41.8701 9.72963 42.0443 9.74073 42.219L9.74073 42.2191L9.74074 42.2192L9.74074 42.2192L9.74074 42.2193L9.74074 42.2194L9.74075 42.2194L9.74075 42.2195L9.74075 42.2196C9.74454 42.2792 9.74832 42.3388 9.75188 42.3984C9.75188 42.479 9.7729 42.5 9.84647 42.5141C10.0006 42.5526 10.1443 42.5596 10.2984 42.5596C10.4963 42.5526 10.6933 42.5561 10.8903 42.5596H10.8905C11.0876 42.5631 11.2846 42.5666 11.4826 42.5596C11.5398 42.5558 11.5859 42.5557 11.6292 42.5556H11.6292C11.7052 42.5554 11.7723 42.5552 11.875 42.5351C12.0221 42.5036 12.0711 42.4265 12.0711 42.2058C12.061 42.1048 12.0619 42.0474 12.0631 41.9603C12.0636 41.9266 12.0641 41.8884 12.0641 41.8414C12.0641 41.5997 11.896 41.5191 11.7488 41.5261C11.6865 41.5304 11.4791 41.5268 11.2819 41.5233C11.1578 41.5212 11.0377 41.5191 10.9606 41.5191C10.9205 41.5199 10.8861 41.5214 10.8566 41.5226L10.8563 41.5226C10.7668 41.5263 10.722 41.5282 10.7003 41.5067C10.6785 41.4853 10.6796 41.4405 10.6819 41.351C10.6828 41.317 10.6838 41.2765 10.6838 41.2283C10.6838 41.0887 10.6855 40.9299 10.6873 40.7706L10.6873 40.7704C10.689 40.6101 10.6908 40.4492 10.6908 40.3069C10.6908 40.1528 10.7048 40.1037 10.852 40.1037H11.7663C11.9135 40.1247 12.0151 40.0231 12.0151 39.869C12.0151 39.7919 12.0186 39.7516 12.0221 39.7113C12.0256 39.671 12.0291 39.6307 12.0291 39.5537L12.0081 39.3365C11.9941 39.2103 11.952 39.1683 11.8259 39.1683C11.7453 39.1683 11.6648 39.1753 11.5842 39.1823C11.4262 39.1928 11.3113 39.1875 11.1972 39.1823H11.1971C11.0835 39.177 10.9707 39.1718 10.8169 39.1823C10.7153 39.1823 10.7013 39.1683 10.6943 39.0737C10.663 38.7918 10.6939 38.4787 10.7218 38.1963L10.7223 38.1908C10.7293 38.0752 10.7609 38.0542 10.8695 38.0472L11.8995 38.0402L11.9312 38.0364C12.046 38.0229 12.0811 38.0188 12.0746 37.8931C12.0685 37.799 12.0698 37.7043 12.0711 37.6096C12.0727 37.4889 12.0744 37.3681 12.0606 37.2484C12.0466 37.1328 12.0116 37.1118 11.8785 37.1118L11.7759 37.1149C11.6342 37.1192 11.567 37.1213 11.388 37.1328C11.1708 37.1398 10.2914 37.1398 10.0812 37.1398L10.0343 37.1397C9.7707 37.1387 9.75151 37.1386 9.74487 37.4902C9.73437 37.7082 9.73568 37.9322 9.73699 38.1562C9.73743 38.2309 9.73787 38.3056 9.73787 38.38C9.73787 38.5573 9.7345 38.8933 9.73068 39.2737L9.73067 39.2755L9.73066 39.2757V39.2758V39.2759V39.2759ZM14.8704 42.5736C14.6427 42.5806 14.4745 42.5806 14.2923 42.5806C14.2855 42.5806 14.2781 42.581 14.2705 42.5815C14.2466 42.5828 14.2207 42.5842 14.2047 42.5736C14.1627 42.5666 14.513 41.0391 14.5621 40.8289C14.6759 40.3653 14.7709 39.9122 14.8681 39.4485L14.8682 39.4484L14.8683 39.4479C14.8966 39.3126 14.9252 39.1763 14.9545 39.0387C15.0068 38.7895 15.102 38.3609 15.1843 37.99L15.1845 37.9892L15.1845 37.9889C15.2619 37.6404 15.3279 37.3432 15.3363 37.294L15.3399 37.2649C15.35 37.1796 15.3531 37.1538 15.4449 37.1538C15.6162 37.1632 15.7907 37.16 15.9619 37.1569C16.0464 37.1554 16.13 37.1538 16.2122 37.1538C16.296 37.1538 16.297 37.1575 16.3112 37.2102C16.3165 37.2302 16.3238 37.2573 16.3383 37.294C16.3733 37.5112 17.2072 41.463 17.2352 41.5506C17.2685 41.6522 17.2886 41.7564 17.3088 41.8607C17.3289 41.9649 17.3491 42.0691 17.3823 42.1707C17.4034 42.2303 17.5225 42.5736 17.3543 42.5736C17.2282 42.5806 16.8043 42.5806 16.6887 42.5806L16.6706 42.5807C16.5999 42.5811 16.592 42.5812 16.566 42.5C16.5439 42.4388 16.5243 42.3717 16.5047 42.3049L16.5047 42.3048C16.484 42.2341 16.4633 42.1637 16.4399 42.1007L16.3874 41.9325C16.3663 41.8659 16.3208 41.8309 16.2402 41.8309C16.1429 41.829 16.0585 41.8256 15.9802 41.8225H15.9801H15.98H15.9799H15.9798H15.9797H15.9796C15.7652 41.8139 15.5961 41.8071 15.3293 41.8379C15.2558 41.8519 15.2347 41.8589 15.2277 41.9465C15.2264 41.9566 15.2248 41.9704 15.2229 41.9871L15.2229 41.9872C15.2043 42.1489 15.1547 42.5806 15.0245 42.5806C14.958 42.5806 14.8914 42.5806 14.8704 42.5736ZM15.8268 40.9165C15.8605 40.9165 15.8943 40.9183 15.9276 40.9201C15.9599 40.9218 15.9919 40.9235 16.023 40.9235C16.1561 40.9235 16.1842 40.9235 16.1176 40.6608C16.0896 40.5357 16.066 40.4217 16.0431 40.3111C16.0114 40.1584 15.981 40.012 15.9424 39.8515C15.9258 39.8054 15.9102 39.7224 15.8951 39.6419C15.8814 39.5694 15.8681 39.4989 15.8548 39.4591L15.8513 39.4554C15.8437 39.4473 15.8317 39.4346 15.8198 39.4346C15.8128 39.4346 15.7988 39.4486 15.7918 39.4661C15.7601 39.6124 15.6554 40.0797 15.5828 40.4033L15.515 40.7063C15.4625 40.9165 15.473 40.9165 15.6762 40.9165H15.8268ZM20.6335 41.3562C20.6318 41.3413 20.63 41.3264 20.63 41.3124V41.3089C20.63 41.1906 20.6225 40.9786 20.6151 40.7704V40.7703L20.6151 40.7701C20.6066 40.5282 20.5982 40.2914 20.602 40.2123C20.602 40.1913 20.616 40.1633 20.623 40.1633C20.637 40.1633 20.665 40.1773 20.672 40.1843C20.77 40.3115 21.0182 40.7562 21.2835 41.2316L21.2838 41.2321L21.2838 41.2321L21.2838 41.2322C21.654 41.8956 22.0575 42.6186 22.133 42.6227C22.168 42.6297 22.2065 42.6297 22.2416 42.6297C22.4058 42.6204 22.5547 42.6234 22.7095 42.6265H22.7096C22.7893 42.6281 22.8706 42.6297 22.9563 42.6297C23.1992 42.6297 23.0522 42.399 23.0035 42.3225L22.9983 42.3144C22.9353 42.2198 22.0629 40.6643 22.0138 40.5697C21.9439 40.4514 21.8795 40.3284 21.8154 40.2059L21.8153 40.2059L21.8153 40.2058L21.8152 40.2056C21.7445 40.0705 21.6741 39.9361 21.5969 39.8094C21.5829 39.7814 21.5689 39.7359 21.5759 39.7078C21.5899 39.6202 21.6145 39.5397 21.6495 39.4591C21.8247 39.1157 22.0104 38.7654 22.2206 38.4361C22.4518 38.0647 22.5849 37.83 22.7741 37.4937C22.8161 37.4131 22.8477 37.3255 22.8757 37.2309C22.8827 37.1924 22.8512 37.1573 22.8091 37.1573C22.711 37.1523 22.4229 37.1545 22.2087 37.1561H22.2084C22.1246 37.1568 22.0522 37.1573 22.0068 37.1573C21.9333 37.1573 21.8632 37.1713 21.8247 37.2379C21.7301 37.4236 20.7526 39.2103 20.658 39.3715C20.651 39.3855 20.63 39.3925 20.609 39.3925C20.609 39.3925 20.595 39.3715 20.595 39.3575C20.5915 39.1563 20.6075 38.7325 20.623 38.321L20.623 38.3209C20.6391 37.894 20.6547 37.4804 20.6475 37.343C20.6405 37.1819 20.6125 37.1678 20.4513 37.1608C20.2762 37.1538 20.0344 37.1538 19.8592 37.1538C19.7024 37.1538 19.6849 37.2368 19.6615 37.3477L19.6596 37.357C19.6525 37.3781 19.6525 38.0647 19.6525 38.373C19.6525 38.4629 19.651 38.6468 19.6489 38.8904L19.6489 38.8911V38.8912V38.8913V38.8914V38.8915V38.8915V38.8916C19.6408 39.8642 19.6246 41.7874 19.6666 42.493C19.6666 42.5841 19.6876 42.6332 19.7612 42.6332C19.8949 42.6236 20.0725 42.6271 20.2353 42.6303L20.2357 42.6303C20.3116 42.6318 20.3843 42.6332 20.4478 42.6332C20.5845 42.6332 20.609 42.6192 20.609 42.3844C20.609 42.2372 20.6152 42.0962 20.6218 41.9474L20.6218 41.9473C20.6292 41.7811 20.637 41.6051 20.637 41.4C20.637 41.386 20.6353 41.3711 20.6335 41.3562ZM54.9053 39.1386V39.1385L54.9053 39.1377C54.9084 38.8143 54.911 38.5359 54.911 38.38C54.911 38.0822 54.911 37.7809 54.918 37.4902C54.9246 37.1386 54.9532 37.1387 55.2089 37.1397L55.2543 37.1398C55.4645 37.1398 56.3509 37.1398 56.5681 37.1328C56.7471 37.1213 56.8143 37.1192 56.956 37.1149L57.0586 37.1118C57.1917 37.1118 57.2197 37.1328 57.2337 37.2484C57.252 37.3725 57.2491 37.4978 57.2461 37.6229V37.623V37.6231V37.6232C57.244 37.7134 57.2419 37.8035 57.2477 37.8931C57.2607 38.019 57.2259 38.0229 57.1052 38.0365L57.0726 38.0402L56.0426 38.0472C55.934 38.0542 55.9094 38.0752 55.8954 38.1908C55.8674 38.4746 55.8429 38.7899 55.8674 39.0737C55.8744 39.1683 55.8884 39.1823 55.99 39.1823C56.1477 39.1718 56.3009 39.1771 56.4542 39.1823C56.6075 39.1876 56.7608 39.1928 56.9184 39.1823C56.9541 39.1789 56.9552 39.1755 56.956 39.1729C56.9569 39.1702 56.9575 39.1683 56.999 39.1683C57.1251 39.1683 57.1672 39.2103 57.1812 39.3365C57.1836 39.3615 57.1868 39.3866 57.1899 39.4115C57.1961 39.4597 57.2022 39.5075 57.2022 39.5537C57.206 39.6374 57.2015 39.6777 57.1967 39.7217C57.1926 39.7588 57.1882 39.7985 57.1882 39.869C57.1882 39.9066 57.1917 39.9411 57.1949 39.9715C57.2045 40.0654 57.2101 40.1196 57.0936 40.1037H56.0286C55.8884 40.1037 55.8674 40.1528 55.8674 40.3069C55.8674 40.5907 55.8674 40.948 55.8604 41.2283C55.8604 41.415 55.8625 41.5085 55.8643 41.5937V41.5939V41.594C55.8659 41.6654 55.8674 41.7312 55.8674 41.8414C55.8674 41.8884 55.8669 41.9266 55.8664 41.9604C55.8651 42.0474 55.8643 42.1048 55.8744 42.2058C55.8744 42.4755 55.8744 42.5421 55.4785 42.5561C55.3244 42.5561 55.1702 42.5491 55.0266 42.5106C54.946 42.4965 54.932 42.4755 54.925 42.3949C54.911 42.1602 54.9004 41.9255 54.8934 41.6943C54.8888 41.5679 54.8903 41.4415 54.8919 41.3162C54.8927 41.2539 54.8934 41.1918 54.8934 41.1302H54.9005L54.904 41.1337C54.8893 40.8489 54.8984 39.877 54.9053 39.1389V39.1386ZM60.3541 42.2693V42.2692V42.2691V42.2691C60.3513 42.2099 60.3483 42.147 60.3483 42.0831L60.3553 42.0866V42.0863C60.3553 41.8962 60.3553 40.6992 60.3623 40.6047C60.3693 40.5802 60.3868 40.5381 60.4148 40.5381C60.4429 40.5381 60.4569 40.5521 60.4639 40.5732C60.678 40.9937 60.8731 41.4123 61.066 41.8262L61.0665 41.8271L61.0665 41.8273L61.0666 41.8274L61.0667 41.8276C61.1355 41.9753 61.2041 42.1224 61.2732 42.2688C61.2898 42.3036 61.3143 42.3672 61.3384 42.4299L61.3385 42.4299L61.3385 42.4301C61.3703 42.5124 61.4014 42.5932 61.4133 42.6052C61.4385 42.6388 61.4749 42.6365 61.5118 42.6343L61.5218 42.6337C61.5277 42.6334 61.5336 42.6332 61.5394 42.6332L62.3417 42.6402C62.4363 42.6402 62.4573 42.5806 62.4363 42.5C62.3893 42.3286 62.1195 41.8098 61.9615 41.506C61.9193 41.425 61.8852 41.3592 61.8652 41.3194C61.8417 41.2687 61.7719 41.13 61.6907 40.969L61.6907 40.969C61.5422 40.6742 61.3558 40.3044 61.3467 40.2614C61.3354 40.2432 61.3784 40.2148 61.4139 40.1913L61.4284 40.1817L61.4385 40.1746L61.4448 40.1699C61.4475 40.1678 61.4499 40.1658 61.4518 40.1639C61.4533 40.1624 61.4545 40.161 61.4553 40.1598C61.8057 39.8445 62.121 39.5256 62.1876 39.0352C62.2611 38.5552 62.1525 38.0262 61.8372 37.6408C61.5955 37.357 61.2802 37.1889 60.9088 37.1678C60.7825 37.1601 60.6593 37.1631 60.5359 37.1661H60.5358H60.5358H60.5358H60.5357H60.5356H60.5355C60.4366 37.1685 60.3374 37.171 60.2362 37.1678C60.0365 37.1608 59.8998 37.1608 59.6511 37.1608C59.532 37.1608 59.4584 37.2239 59.4514 37.35V37.4376C59.4401 37.8877 59.447 38.34 59.4537 38.7873V38.7874V38.7874V38.7875V38.7878L59.4537 38.7888C59.4554 38.8981 59.457 39.0071 59.4584 39.1157C59.4584 39.6402 59.453 40.6942 59.4489 41.4982L59.4489 41.5047L59.4488 41.5179C59.4464 42.0045 59.4444 42.3963 59.4444 42.5176C59.4444 42.6122 59.4584 42.6332 59.546 42.6332C59.5727 42.6332 59.6013 42.635 59.6293 42.6368L59.6628 42.6388L59.6846 42.6398C59.6923 42.64 59.6998 42.6402 59.7071 42.6402C59.8079 42.6402 59.8897 42.6385 59.9722 42.6367C60.0561 42.635 60.1407 42.6332 60.2467 42.6332C60.3716 42.6332 60.3639 42.4733 60.3541 42.2693ZM60.3553 39.5782C60.3553 39.4626 60.3483 39.2349 60.3483 39.2349L60.3553 38.4956C60.3569 38.4699 60.3563 38.4385 60.3556 38.4046C60.3534 38.2909 60.3506 38.1478 60.4288 38.0857C60.5655 37.9841 60.8493 38.0857 60.9754 38.1733C61.3432 38.4221 61.3117 39.0352 61.1155 39.3785C61.0209 39.5397 60.8598 39.6378 60.6776 39.6868C60.569 39.7183 60.3623 39.7534 60.3553 39.5782ZM65.5759 41.5493V41.5495C65.5811 41.9993 65.5864 42.4577 65.5824 42.486C65.5473 42.5806 65.4738 42.6017 65.3862 42.6122C65.307 42.6145 65.2296 42.616 65.153 42.6175C64.9956 42.6207 64.841 42.6238 64.6785 42.6332C64.6189 42.6332 64.5979 42.5981 64.5909 42.5596C64.5839 42.458 64.5769 42.3529 64.5839 42.2513C64.5979 41.9605 64.5699 40.6292 64.5629 40.3384C64.5589 40.172 64.564 39.4373 64.5692 38.7054V38.7046V38.7042V38.704C64.5731 38.1578 64.5769 37.6133 64.5769 37.308C64.5769 37.1678 64.6365 37.1328 64.7766 37.1398C64.9868 37.1398 65.0849 37.1398 65.2951 37.1468L65.322 37.148C65.4553 37.1532 65.5508 37.157 65.5508 37.4166C65.5508 37.5445 65.5543 37.6776 65.5578 37.8107C65.5614 37.9439 65.5649 38.077 65.5649 38.2049C65.5579 39.0282 65.5508 39.9145 65.5719 40.7448L65.5684 40.7483C65.5684 40.896 65.5721 41.2193 65.5759 41.5475L65.5759 41.5487V41.5493ZM68.6427 39.2479L68.6427 39.2502L68.6426 39.2524C68.6333 40.1796 68.6211 41.4013 68.6303 41.8379H68.6338C68.6373 41.9513 68.6391 42.0646 68.6408 42.1776V42.1777C68.6426 42.2916 68.6443 42.405 68.6479 42.5176C68.6479 42.6192 68.6549 42.6332 68.7565 42.6332H69.4151C69.5399 42.6332 69.5273 42.4402 69.5189 42.3107L69.5167 42.2758L69.5377 38.1838C69.5377 38.0752 69.5728 38.0402 69.7199 38.0402H70.361C70.4883 38.0402 70.483 37.8527 70.4783 37.6847C70.4775 37.6538 70.4766 37.6236 70.4766 37.5953C70.4766 37.5641 70.4789 37.5286 70.4812 37.4916V37.4914V37.4913C70.4909 37.3372 70.5022 37.1573 70.361 37.1573C70.2384 37.1573 69.0473 37.1573 68.5568 37.1643C68.4361 37.1643 68.3269 37.1626 68.2176 37.1608L68.2169 37.1608C68.1075 37.1591 67.998 37.1573 67.8771 37.1573C67.7016 37.1573 67.7017 37.2907 67.7019 37.5887L67.7019 37.6233L67.7019 37.6463C67.7017 37.8448 67.7014 38.0332 67.8701 38.0332C67.9752 38.0332 68.3921 38.0332 68.5077 38.0402C68.5778 38.0402 68.6303 38.0612 68.6444 38.1418C68.6444 38.1517 68.6459 38.1615 68.6475 38.1717L68.6476 38.1723C68.6486 38.1782 68.6496 38.1843 68.6503 38.1906C68.6509 38.1963 68.6514 38.2022 68.6514 38.2084C68.6514 38.3847 68.6474 38.7771 68.6427 39.2456L68.6427 39.2479ZM72.6941 39.2775L72.6941 39.2761C72.698 38.8947 72.7013 38.5577 72.7013 38.38C72.7013 38.3055 72.7009 38.2308 72.7004 38.1561C72.6991 37.9322 72.6978 37.7082 72.7083 37.4902C72.715 37.1386 72.7342 37.1387 72.9977 37.1397L73.0447 37.1398C73.2549 37.1398 74.1342 37.1398 74.3514 37.1328C74.5305 37.1213 74.5977 37.1192 74.7394 37.1149L74.8419 37.1118C74.975 37.1118 75.0101 37.1328 75.0241 37.2484C75.0378 37.3681 75.0362 37.4889 75.0345 37.6096C75.0332 37.7043 75.032 37.799 75.0381 37.8931C75.0446 38.0188 75.0095 38.0229 74.8947 38.0364L74.8629 38.0402L73.8329 38.0472C73.7243 38.0542 73.6928 38.0752 73.6858 38.1908L73.6853 38.1962C73.6574 38.4786 73.6264 38.7917 73.6578 39.0737C73.6648 39.1683 73.6788 39.1823 73.7804 39.1823C73.9342 39.1718 74.047 39.177 74.1606 39.1823C74.2747 39.1875 74.3896 39.1928 74.5476 39.1823C74.6282 39.1753 74.7088 39.1683 74.7894 39.1683C74.9155 39.1683 74.9575 39.2103 74.9715 39.3365L74.9926 39.5537C74.9926 39.6307 74.9891 39.671 74.9856 39.7113L74.9855 39.7115C74.982 39.7517 74.9786 39.792 74.9786 39.869C74.9786 40.0231 74.877 40.1247 74.7298 40.1037H73.8154C73.6683 40.1037 73.6543 40.1528 73.6543 40.3069C73.6543 40.4492 73.6525 40.6101 73.6507 40.7704C73.649 40.9298 73.6473 41.0886 73.6473 41.2283C73.6473 41.2765 73.6462 41.317 73.6453 41.351C73.6431 41.4405 73.6419 41.4853 73.6637 41.5067C73.6855 41.5282 73.7302 41.5263 73.8197 41.5226C73.8493 41.5214 73.8838 41.5199 73.924 41.5191C74.0012 41.5191 74.1212 41.5212 74.2454 41.5233C74.4425 41.5268 74.6499 41.5304 74.7123 41.5261C74.8594 41.5191 75.0276 41.5997 75.0276 41.8414C75.0276 41.8884 75.0271 41.9266 75.0266 41.9603C75.0253 42.0474 75.0245 42.1047 75.0346 42.2058C75.0346 42.4265 74.9856 42.5036 74.8384 42.5351C74.7357 42.5552 74.6686 42.5554 74.5927 42.5556C74.5494 42.5557 74.5033 42.5558 74.446 42.5596C74.2481 42.5666 74.051 42.5631 73.854 42.5596H73.8538C73.6568 42.5561 73.4598 42.5526 73.2619 42.5596C73.1077 42.5596 72.9641 42.5526 72.8099 42.5141C72.7364 42.5 72.7153 42.479 72.7153 42.3984C72.7118 42.3388 72.708 42.2791 72.7042 42.2195C72.6931 42.0446 72.682 41.8702 72.6768 41.6978C72.6721 41.5714 72.6737 41.445 72.6753 41.3197C72.6757 41.2846 72.6761 41.2496 72.6764 41.2147C72.6767 41.1877 72.6768 41.1607 72.6768 41.1337H72.6838H72.6873C72.6782 40.8664 72.6869 39.9939 72.6941 39.2775ZM79.2247 37.1994C79.032 37.1468 78.8498 37.1118 78.6536 37.1188V37.1223C78.5135 37.1293 78.3769 37.1538 78.2367 37.1959C77.9354 37.301 77.6657 37.5042 77.4835 37.7669C77.3223 38.0052 77.2558 38.2924 77.2347 38.5762C77.2172 38.7934 77.2418 39.0212 77.3434 39.2173C77.4343 39.3963 77.5817 39.5531 77.7218 39.7022C77.7491 39.7312 77.7761 39.7599 77.8023 39.7884C77.9459 39.9426 78.0931 40.0932 78.2542 40.2333C78.3207 40.2965 78.3924 40.3537 78.4648 40.4115C78.5489 40.4787 78.6341 40.5466 78.7132 40.6257C78.9269 40.8359 79.0075 41.3194 78.8533 41.5822C78.6711 41.8729 78.2402 41.9185 77.9565 41.8239C77.8441 41.7828 77.7404 41.7074 77.6402 41.6346C77.6122 41.6143 77.5846 41.5942 77.5571 41.5751C77.4835 41.5226 77.3959 41.5016 77.3469 41.5892C77.3199 41.6281 77.3058 41.6721 77.2935 41.7103C77.2914 41.7168 77.2893 41.7232 77.2873 41.7293C77.2754 41.7712 77.2629 41.812 77.2505 41.8523C77.2078 41.991 77.1666 42.1247 77.1612 42.2793C77.1548 42.4874 77.514 42.5609 77.6989 42.5988C77.7164 42.6024 77.7323 42.6056 77.7462 42.6087C78.4644 42.7768 79.3228 42.6437 79.6976 41.936C79.7712 41.7924 79.8203 41.6382 79.8518 41.4771C79.8588 41.4175 79.8658 41.3684 79.8658 41.3089C79.8938 40.8394 79.7047 40.447 79.4209 40.0967C79.2164 39.8405 78.9741 39.638 78.7288 39.4329C78.6085 39.3323 78.4875 39.2311 78.3699 39.1228C78.1491 38.9196 78.0686 38.5972 78.1351 38.3065C78.2017 37.9911 78.559 37.9106 78.8288 37.9911C78.9026 38.0104 78.9617 38.0443 79.0276 38.0822C79.0337 38.0857 79.0398 38.0892 79.046 38.0927C79.0548 38.0968 79.0634 38.1011 79.072 38.1054C79.1084 38.1235 79.1451 38.1418 79.1932 38.1418C79.2921 38.1484 79.3103 38.0773 79.3297 38.0017C79.3309 37.997 79.3321 37.9923 79.3333 37.9876C79.3562 37.9084 79.3857 37.8357 79.4146 37.7645C79.4521 37.6721 79.4887 37.5821 79.5085 37.4832C79.5452 37.296 79.4003 37.2523 79.2469 37.2061C79.2395 37.2039 79.2321 37.2016 79.2247 37.1994Z" fill="#A39D8F"/>
</svg>
