<svg width="216" height="217" viewBox="0 0 216 217" fill="none" xmlns="http://www.w3.org/2000/svg">
<path fill-rule="evenodd" clip-rule="evenodd" d="M108.541 30.77L109.81 0.831055L122.602 1.36735L122.432 5.41086L113.932 5.04482L113.557 13.8384L120.967 14.1534L120.797 18.1883L113.387 17.8734L113.021 26.6669L121.512 27.0245L121.333 31.3149L108.541 30.77ZM89.0368 33.9623L82.896 4.6277L89.1219 3.32526C91.5408 2.8145 93.5167 3.09542 95.0413 4.15099C96.5658 5.20656 97.5794 6.94314 98.0904 9.36073L100.961 23.0831C101.54 25.8327 101.293 27.9949 100.237 29.5783C99.1721 31.1616 97.392 32.2172 94.8965 32.7365L89.0453 33.9623H89.0368ZM87.9296 7.70076L92.418 29.1271L94.3514 28.7185C95.5353 28.4716 96.3103 28.0034 96.6766 27.3054C97.0513 26.6159 97.1024 25.6369 96.8384 24.3685L93.883 10.2375C93.6445 9.08832 93.2186 8.24557 92.6224 7.70928C92.0262 7.17298 91.1064 7.03678 89.8714 7.29216L87.9381 7.69225L87.9296 7.70076ZM134.186 3.38485L125.967 32.2087L138.274 35.7159L139.449 31.5873L131.273 29.2548L138.316 4.56811L134.186 3.38485ZM156.875 11.5014L143.246 38.1905L147.069 40.1409L160.699 13.4518L156.875 11.5014ZM159.234 48.4253L182.69 28.7781L179.13 25.9519L163.408 40.185L163.348 40.134L173.696 21.6275L170.136 18.8013L156.262 46.0673L159.234 48.4253ZM166.968 55.61L190.756 37.3674L198.549 47.5229L195.338 49.9831L190.16 43.2326L183.176 48.587L187.69 54.4693L184.479 56.9294L179.973 51.0472L172.989 56.4016L178.159 63.1437L174.753 65.757L166.968 55.61ZM204.622 57.8999L177.086 69.7665L178.79 73.7079L190.543 68.6428L191.557 71.0008L181.387 79.7348L183.184 83.906L193.916 74.2442C195.159 75.2061 196.454 75.6913 197.808 75.7083C199.162 75.7254 200.644 75.3763 202.271 74.6783C207.662 72.3629 209.357 68.8812 207.356 64.2418L204.622 57.8999ZM194.027 67.1446L202.612 63.4416L202.62 63.4246L203.506 65.4761C204.094 66.8467 204.136 67.9278 203.625 68.728C203.336 69.1281 202.944 69.4771 202.45 69.7835C201.956 70.09 201.36 70.3964 200.661 70.6944C199.963 70.9923 199.333 71.2137 198.771 71.3669C198.208 71.5201 197.706 71.5712 197.255 71.5201C196.786 71.4435 196.377 71.2477 196.003 70.9157C195.628 70.5922 195.296 70.0815 194.998 69.3834L194.027 67.1446ZM184.607 91.4227L197.11 89.3371L213.207 80.6627L213.956 85.1489L202.774 90.5203L202.791 90.6055L215.115 92.0441L215.864 96.5218L197.825 93.5679L185.322 95.662L184.607 91.4227ZM18.3622 101.927L0.161232 101.868L0.135681 109.64L2.7419 109.648L2.75894 104.49L18.3537 104.532L18.3622 101.927ZM0.518933 115.428L18.5921 113.266L19.5205 120.979L17.0846 121.268L16.4629 116.143L11.1567 116.782L11.6933 121.243L9.25744 121.54L8.72086 117.071L3.41473 117.71L4.03648 122.834L1.44729 123.141L0.518933 115.428ZM3.74692 133.765L22.3141 132.964L21.6498 130.283L8.81458 131.339L8.79754 131.287L20.6192 126.197L19.9549 123.515L3.19331 131.534L3.74692 133.765ZM6.45533 142.814L23.3787 136.106L24.9288 139.996C26.0616 142.848 24.9714 144.925 21.6583 146.244C20.6618 146.636 19.7505 146.823 18.9328 146.789C18.1152 146.755 17.3316 146.44 16.5991 145.836L9.91325 151.513L8.89972 148.951L15.2279 143.827L14.6573 142.379L7.43479 145.248L6.47236 142.822L6.45533 142.814ZM22.0586 139.426L16.7865 141.52L17.3316 142.899C17.502 143.324 17.6978 143.648 17.9108 143.852C18.1322 144.056 18.3792 144.193 18.6603 144.244C18.9328 144.278 19.2394 144.261 19.5886 144.176C19.9293 144.09 20.3126 143.971 20.747 143.801C21.1728 143.631 21.539 143.461 21.8457 143.282C22.1523 143.111 22.3993 142.899 22.5781 142.66C22.9018 142.184 22.8933 141.528 22.5611 140.685L22.0586 139.426ZM11.8593 155.607L11.8552 155.608V155.6L11.8593 155.607ZM11.8593 155.607L29.724 150.254L30.7886 152.143L16.8973 164.58L15.6197 162.308L18.6603 159.728L16.9228 156.63L13.1327 157.872L11.8593 155.607ZM25.6869 153.778L20.5596 158.111V158.119L19.282 155.846L25.6613 153.735L25.6869 153.778ZM34.6812 158.355L19.8212 168.859L21.3262 170.986L36.1861 160.482L34.6812 158.355ZM40.4986 173.876L40.5065 173.885L40.498 173.876L40.4986 173.876ZM41.4605 173.033L40.4986 173.876L38.7861 171.927L39.229 171.544C39.6804 171.152 39.97 170.701 40.1148 170.207C40.2596 169.714 40.1062 169.211 39.6634 168.718C39.4249 168.445 39.1864 168.275 38.9309 168.198C38.6839 168.122 38.4369 168.096 38.1899 168.13C37.9344 168.173 37.6789 168.266 37.4404 168.42C37.1934 168.564 36.9549 168.743 36.725 168.947C36.4609 169.177 36.2395 169.39 36.0777 169.569C35.9159 169.748 35.7966 169.935 35.7285 170.139C35.6518 170.343 35.6348 170.556 35.6603 170.795C35.6859 171.033 35.7625 171.322 35.8818 171.671L36.6057 173.689C36.8187 174.268 36.9379 174.796 36.9464 175.264C36.9635 175.723 36.8868 176.166 36.725 176.583C36.5461 176.992 36.2821 177.392 35.9329 177.792C35.5837 178.184 35.1664 178.601 34.6638 179.035C34.0932 179.546 33.5055 179.954 32.9093 180.269C32.3131 180.593 31.734 180.771 31.1633 180.823C30.5671 180.865 29.9795 180.763 29.3918 180.508C28.8041 180.252 28.2335 179.81 27.6799 179.188C27.2625 178.711 26.9559 178.201 26.76 177.647C26.5641 177.094 26.4875 176.541 26.5215 175.979C26.5556 175.426 26.6919 174.889 26.9304 174.378C27.1688 173.868 27.518 173.4 27.9779 172.999L28.7104 172.352L30.4309 174.31L29.8176 174.847C29.4599 175.162 29.23 175.545 29.1278 176.013C29.0256 176.473 29.1959 176.958 29.6388 177.46C29.9284 177.792 30.2094 178.013 30.4649 178.107C30.7204 178.209 30.9845 178.235 31.257 178.175C31.5296 178.124 31.7936 177.996 32.0661 177.792C32.3302 177.588 32.6197 177.358 32.9264 177.086C33.2841 176.771 33.5651 176.498 33.7781 176.268C33.9825 176.038 34.1273 175.826 34.1954 175.621C34.255 175.409 34.2721 175.187 34.2295 174.966C34.1869 174.736 34.1102 174.455 33.9995 174.123L33.3437 172.216C32.9434 171.067 32.9008 170.105 33.2245 169.313C33.5396 168.522 34.1273 167.756 34.9875 166.998C35.4985 166.547 36.0436 166.189 36.6313 165.925C37.2104 165.662 37.7981 165.525 38.3773 165.508C38.9479 165.483 39.5101 165.593 40.0722 165.832C40.6343 166.07 41.1709 166.479 41.6819 167.058C42.1078 167.543 42.4144 168.071 42.5847 168.624C42.7636 169.186 42.8317 169.739 42.7976 170.292C42.7039 171.425 42.2525 172.335 41.4605 173.033ZM44.1263 176.141C44.6032 175.587 45.1313 175.179 45.6934 174.923C46.2556 174.668 46.8177 174.532 47.3883 174.532C47.9334 174.532 48.4615 174.634 48.981 174.83C49.492 175.034 49.952 175.306 50.3523 175.647C50.7526 175.996 51.0847 176.404 51.3488 176.89C51.6213 177.375 51.8002 177.886 51.8853 178.439C51.945 178.992 51.8853 179.563 51.715 180.15C51.5361 180.737 51.2125 181.316 50.727 181.87L44.4244 189.122C43.9219 189.701 43.3938 190.118 42.8487 190.357C42.2951 190.604 41.75 190.723 41.2049 190.723C40.6343 190.723 40.0977 190.629 39.5782 190.433C39.0586 190.238 38.6072 189.965 38.2069 189.616C37.8066 189.267 37.4745 188.858 37.2019 188.373C36.9294 187.888 36.7675 187.377 36.7079 186.824C36.6228 186.271 36.6568 185.709 36.8272 185.13C36.989 184.551 37.3297 183.972 37.8322 183.393L44.1348 176.141H44.1263ZM39.7911 185.104C39.3823 185.581 39.2034 186.049 39.2716 186.5C39.3397 186.952 39.5526 187.343 39.9103 187.65C40.2681 187.965 40.6769 188.126 41.1368 188.126C41.5967 188.126 42.0311 187.897 42.4484 187.42L48.7511 180.167C49.1599 179.69 49.3387 179.231 49.2706 178.771C49.2025 178.32 48.9895 177.937 48.6233 177.622C48.2656 177.307 47.8568 177.154 47.3968 177.145C46.9369 177.145 46.5025 177.375 46.0852 177.852L39.7826 185.104H39.7911ZM56.6379 180.967L46.7155 196.222L48.9044 197.644L54.8663 188.475L54.9089 188.501L52.2857 199.84L54.3468 201.176L64.2692 185.922L62.0803 184.5L56.1013 193.694L56.0587 193.668L58.7331 182.329L56.6379 180.967ZM78.8333 187.965L79.685 192.153L78.1094 191.548L76.2612 186.969L78.8333 187.965ZM66.4666 207.442L76.8148 191.932L78.8418 192.715L76.0823 211.153L73.6464 210.217L74.3448 206.292L71.0317 205.016L68.9109 208.387L66.4751 207.45L66.4666 207.442ZM75.9546 197.209L74.7712 203.821L72.3433 202.887L75.912 197.192L75.9546 197.209ZM89.4635 214.646L89.4626 214.652L89.4456 214.643L89.4635 214.646ZM89.4635 214.646L92.3329 196.682L96.14 197.295C97.622 197.533 98.6781 198.112 99.3169 199.04C99.9556 199.967 100.152 201.176 99.9131 202.657L98.5674 211.059C98.2948 212.745 97.6901 213.911 96.7447 214.584C95.7993 215.248 94.5643 215.461 93.0313 215.222L89.4635 214.646ZM92.4266 212.643L94.5218 199.516L94.5132 199.508L95.6971 199.695C96.4551 199.814 96.9491 200.095 97.1706 200.529C97.4005 200.963 97.4516 201.534 97.3409 202.24L95.9611 210.898C95.8419 211.672 95.5949 212.217 95.2372 212.532C94.8795 212.847 94.3344 212.949 93.6104 212.83L92.4266 212.643ZM104.563 202.683C104.58 201.951 104.717 201.304 104.989 200.751C105.253 200.197 105.611 199.729 106.045 199.363C106.463 199.014 106.931 198.75 107.451 198.58C107.97 198.401 108.498 198.316 109.026 198.333C109.554 198.342 110.074 198.452 110.593 198.648C111.104 198.852 111.573 199.133 111.99 199.499C112.391 199.882 112.714 200.359 112.961 200.921C113.208 201.491 113.319 202.138 113.302 202.87L113.097 212.481C113.08 213.247 112.944 213.903 112.672 214.439C112.408 214.984 112.067 215.426 111.65 215.775C111.215 216.142 110.738 216.414 110.21 216.593C109.682 216.771 109.163 216.848 108.635 216.84C108.106 216.831 107.587 216.72 107.067 216.525C106.548 216.329 106.096 216.039 105.696 215.648C105.279 215.282 104.947 214.822 104.7 214.269C104.453 213.715 104.342 213.06 104.359 212.294L104.563 202.683ZM106.965 212.345C106.948 212.975 107.118 213.443 107.459 213.749C107.8 214.056 108.209 214.218 108.686 214.226C109.163 214.235 109.58 214.098 109.938 213.801C110.295 213.511 110.474 213.051 110.491 212.422L110.696 202.811C110.713 202.181 110.542 201.713 110.202 201.406C109.861 201.1 109.444 200.946 108.967 200.938C108.49 200.929 108.072 201.066 107.715 201.355C107.357 201.644 107.17 202.104 107.161 202.734L106.957 212.345H106.965ZM117.305 198.478L119.69 216.516L122.279 216.176L120.831 205.203L120.882 205.194L124.442 212.617L125.728 212.447L127.27 204.352L127.321 204.343L128.769 215.316L131.35 214.975L128.965 196.937L126.461 197.269L124.425 207.254L124.374 207.263L119.792 198.146L117.305 198.478ZM135.676 195.174L133.154 195.831L137.742 213.435L140.264 212.778L135.676 195.174ZM152.313 203.236L152.31 203.228H152.336L152.313 203.236ZM149.891 204.147L152.313 203.236L152.71 204.283C152.906 204.811 152.991 205.348 152.974 205.892C152.949 206.437 152.838 206.965 152.625 207.459C152.412 207.961 152.114 208.404 151.722 208.795C151.331 209.187 150.862 209.485 150.326 209.689C149.857 209.868 149.363 209.978 148.844 210.029C148.316 210.081 147.804 210.029 147.302 209.842C146.799 209.672 146.331 209.374 145.897 208.965C145.462 208.557 145.096 207.961 144.806 207.178L141.28 197.797C141.067 197.243 140.974 196.69 140.982 196.137C140.991 195.583 141.11 195.073 141.332 194.588C141.553 194.102 141.868 193.677 142.277 193.294C142.686 192.911 143.188 192.613 143.776 192.383C144.926 191.949 145.999 191.974 147.004 192.459C147.489 192.698 147.932 193.03 148.324 193.455C148.707 193.881 149.014 194.392 149.235 194.979L149.593 195.933L147.149 196.852L146.842 196.035C146.663 195.558 146.374 195.192 145.965 194.945C145.564 194.698 145.13 194.656 144.662 194.834C144.057 195.064 143.725 195.405 143.665 195.847C143.606 196.299 143.682 196.809 143.904 197.38L147.174 206.088C147.362 206.582 147.626 206.956 147.966 207.212C148.307 207.467 148.758 207.493 149.321 207.28C149.482 207.22 149.644 207.127 149.806 206.999C149.968 206.871 150.104 206.718 150.215 206.531C150.309 206.352 150.36 206.131 150.377 205.867C150.385 205.611 150.334 205.313 150.206 204.981L149.891 204.147ZM153.852 188.075L151.522 189.242L159.674 205.506L162.004 204.339L153.852 188.075ZM157.812 185.947L167.547 201.321L174.114 197.167L172.717 194.962L168.356 197.729L160.018 184.551L157.812 185.947ZM178.747 193.77L167.206 179.699L173.219 174.77L174.778 176.668L170.784 179.937L174.165 184.074L177.648 181.223L179.207 183.121L175.723 185.973L179.113 190.101L183.108 186.832L184.76 188.85L178.747 193.77ZM14.3166 86.0767L19.2309 87.4898C27.4669 58.9384 49.1088 35.8862 77.1214 25.8242L75.3924 21.0145C45.8382 31.6213 23.0125 55.942 14.3166 86.0767ZM183.517 176.422L179.607 173.127C193.711 156.417 201.479 135.161 201.479 113.266C201.479 110.832 201.385 108.371 201.198 105.954L206.291 105.554C206.487 108.099 206.589 110.695 206.589 113.258C206.589 136.352 198.396 158.783 183.517 176.413V176.422ZM108.089 135.867C107.476 138.532 106.94 141.23 106.522 143.988L106.505 143.954C105.361 151.519 105.647 155.315 105.775 157.032C105.852 158.052 105.874 158.339 105.509 158.247C104.223 157.923 103.26 152.348 104.666 142.396C105.057 139.596 105.56 136.855 106.148 134.165C105.049 133.237 103.26 131.747 101.565 130.462L100.884 129.959L100.864 129.945L100.864 129.944C98.1814 127.964 92.6429 123.874 87.2908 120.825C85.3233 122.111 83.2878 123.294 81.2096 124.384C78.6885 125.703 76.0994 126.929 73.425 127.908C72.403 128.282 71.3554 128.631 70.2822 128.853C69.4049 129.04 68.3403 129.202 67.5312 128.708C67.2842 128.555 67.0883 128.325 67.0287 128.044C66.9691 127.763 67.0713 127.448 67.3097 127.286C67.4971 127.159 67.7526 127.142 67.9826 127.201C68.119 127.237 68.2371 127.28 68.3492 127.321C68.5868 127.408 68.7973 127.486 69.0983 127.457C70.7556 127.286 72.4388 126.493 73.9782 125.768C74.203 125.662 74.4248 125.557 74.6429 125.456C77.2151 124.264 79.7361 122.937 82.189 121.506C83.16 120.945 84.1395 120.366 85.0934 119.753C84.6675 119.583 84.3609 119.497 84.1565 119.446L84.1401 119.442C83.9597 119.393 83.8036 119.35 83.6795 119.268C83.5944 119.216 83.5348 119.14 83.4837 119.029C83.407 118.859 83.407 118.672 83.4922 118.459C83.6114 118.203 83.7988 118.025 84.0458 117.923C84.7271 117.642 85.911 117.999 86.9671 118.459C87.3504 118.178 87.7251 117.889 88.0914 117.582C88.1156 117.624 88.1529 117.658 88.1908 117.693C88.1963 117.698 88.2019 117.703 88.2074 117.708C88.2119 117.712 88.2165 117.716 88.221 117.721C88.2261 117.725 88.2312 117.73 88.2362 117.735C88.9005 117.225 89.4626 116.833 89.9225 116.578C89.8985 116.566 89.8741 116.555 89.8494 116.542L89.8359 116.536L89.822 116.529C89.8081 116.521 89.7941 116.514 89.78 116.507L89.7768 116.506C89.71 116.471 89.6417 116.437 89.5733 116.407C87.8253 115.597 86.814 115.473 86.3238 115.413L86.3113 115.411C86.0899 115.386 85.8855 115.36 85.7322 115.258C85.664 115.207 85.5959 115.139 85.5533 115.037C85.4596 114.841 85.4766 114.62 85.6044 114.364C86.2006 113.266 88.1851 113.326 90.9276 114.5C97.7497 117.369 102.758 120.808 106.36 123.49C107.106 124.043 107.784 124.535 108.408 124.989L108.524 125.073C110.108 119.88 112.024 114.858 114.239 109.946C113.54 109.469 112.697 108.891 111.624 108.142L111.036 107.733C111.029 107.74 111 107.768 110.955 107.813C110.682 108.083 109.805 108.949 109.418 109.35C109.086 109.733 108.754 110.099 108.43 110.44C108.141 110.755 107.842 111.061 107.536 111.359C106.395 112.5 105.211 113.598 103.976 114.628C103.872 114.715 103.753 114.818 103.623 114.932C102.677 115.757 101.123 117.114 100.075 116.373C99.8449 116.212 99.5128 115.828 99.5128 115.522C99.5128 115.178 99.8827 115 100.161 114.866L100.194 114.85C101.464 114.228 102.485 113.29 103.519 112.341L103.519 112.341L103.558 112.304C104.178 111.742 104.787 111.164 105.396 110.586C105.883 110.123 106.371 109.66 106.863 109.206C107.689 108.439 108.43 107.724 109.239 106.856H109.231L109.452 106.635L107.212 105.085L107.118 105.026L107.118 105.026C106.019 105.937 104.921 106.848 103.78 107.758C98.8484 111.785 96.2763 113.879 95.7397 112.96C95.4569 112.443 95.8842 112.1 98.4093 110.073L98.4093 110.073C99.382 109.291 100.666 108.26 102.34 106.873C103.456 105.937 104.563 104.983 105.671 104.013C104.061 102.889 103.541 102.421 103.558 101.919C103.567 101.706 103.686 101.51 103.882 101.4C104.495 101.093 104.964 101.425 106.207 102.336C106.268 102.381 106.331 102.427 106.397 102.474L106.496 102.546L106.668 102.671L106.676 102.677C106.765 102.742 106.859 102.81 106.957 102.881C117.325 93.6566 127.082 83.3713 130.985 79.2573L130.985 79.257L130.985 79.2568L130.986 79.2566L131 79.2411C131.375 78.8495 131.758 78.4409 132.133 78.0408C133.181 76.2531 134.279 74.3889 135.387 72.5586C134.443 72.4182 133.64 72.4924 133.071 72.545C132.571 72.5913 132.251 72.6208 132.176 72.4735C131.946 72.0224 131.375 70.6688 132.9 69.8346C133.871 69.3324 135.344 69.5026 136.894 70.107C138.845 66.9573 140.701 64.1226 142.175 62.2839L142.243 62.1647C142.575 61.5007 143.12 60.9559 143.75 60.5899C144.253 60.1727 144.662 60.0025 144.917 60.1898C145.803 60.0621 146.697 60.3089 147.319 60.8963C147.421 60.9219 147.498 60.9644 147.557 61.0495C148.137 61.8753 146.714 64.6163 140.258 72.0734C141.655 73.4269 142.524 74.7975 142.234 75.1805C141.903 75.6608 141.161 75.1812 140.02 74.4433C139.664 74.2133 139.269 73.9583 138.836 73.6993C138.41 74.1846 137.976 74.6783 137.507 75.1976C135.984 77.6438 134.491 80.1094 133 82.5717C131.523 85.0105 130.048 87.4461 128.547 89.8564C124.476 96.4111 120.712 103.017 117.45 109.81C117.603 109.861 117.739 109.878 117.901 109.887C118.387 109.921 118.761 110.431 118.864 110.891C118.957 111.317 118.812 111.691 118.489 111.862C118.012 112.1 117.688 112.125 116.641 111.513C114.358 116.424 112.331 121.447 110.662 126.614C114.324 129.312 114.878 129.908 114.315 130.913C114.094 131.27 113.711 131.526 113.259 131.619C112.842 131.713 112.45 131.636 112.212 131.441C111.905 131.228 111.266 130.743 110.329 129.891C110.287 129.857 110.082 129.687 109.784 129.432C109.41 130.7 109.052 131.985 108.72 133.279C111.122 135.203 111.36 135.637 111.019 136.352C110.857 136.642 110.602 136.838 110.278 136.914C109.912 137.008 109.401 136.965 109.069 136.667C108.899 136.54 108.558 136.267 108.089 135.867ZM114.085 103.357C114.349 103.783 114.239 104.498 112.339 106.473L112.356 106.482L115.039 108.312C118.361 101.17 122.279 94.2489 126.64 87.3707C126.87 87.0046 127.142 86.562 127.432 86.0853C121.819 91.9164 115.627 97.9008 108.481 103.928C109.111 104.345 109.546 104.617 109.904 104.839C110.117 104.969 110.302 105.089 110.491 105.211L110.491 105.211L110.492 105.211C110.537 105.24 110.582 105.269 110.628 105.298C110.631 105.298 110.635 105.295 110.638 105.292C110.642 105.287 110.645 105.281 110.645 105.281C110.647 105.284 110.65 105.288 110.653 105.292C110.659 105.299 110.664 105.307 110.67 105.307C110.677 105.31 110.684 105.313 110.69 105.315C110.701 105.319 110.711 105.321 110.721 105.324C110.738 105.328 110.755 105.332 110.772 105.341C111.198 104.898 111.454 104.609 111.505 104.549C111.61 104.414 111.662 104.325 111.69 104.277L111.693 104.272L111.701 104.26C111.573 104.004 111.65 103.766 111.914 103.536C112.237 103.264 113.029 103 113.54 103.059C113.855 103.094 114.009 103.238 114.085 103.357ZM103.124 128.929L105.355 130.657C105.455 130.735 105.553 130.811 105.648 130.885L105.784 130.991L105.932 131.105L106.086 131.224L106.087 131.225C106.308 131.396 106.519 131.56 106.727 131.722C107.05 130.394 107.383 129.083 107.749 127.78C106.795 127.023 105.688 126.171 104.597 125.397L103.891 124.92C101.463 123.269 96.7447 120.059 91.7707 117.497C91.6515 117.803 91.4726 118.084 91.3023 118.221C90.9959 118.527 90.3763 118.879 89.6437 119.295L89.6422 119.295C89.4793 119.388 89.3108 119.483 89.139 119.583C95.1265 122.851 99.7512 126.282 103.124 128.929ZM96.6766 131.304C89.8629 122.792 76.7126 130.215 73.8253 132.505L73.8049 132.521C72.5185 133.546 72.1664 133.827 72.5222 134.326C72.8772 134.825 73.0728 134.703 74.9572 133.528L75.0007 133.501C75.4776 133.203 75.9886 132.888 76.4315 132.615C76.4328 132.615 76.4383 132.612 76.448 132.606C76.702 132.461 79.8146 130.682 83.8754 129.976C88.3299 129.202 91.8644 130.07 94.377 132.556C100.68 138.796 99.7427 151.377 99.7001 151.914C99.5894 153.242 99.5554 153.684 99.8024 153.854C99.879 153.906 99.9812 153.931 100.109 153.957C100.661 154.033 100.781 153.482 100.824 153.285L100.824 153.284C100.858 153.156 103.746 140.141 96.6681 131.304H96.6766ZM50.7696 66.2848C50.4885 65.9528 50.199 65.6634 49.8327 65.425L49.8412 65.4336C49.5772 65.2718 49.2962 65.1356 48.9895 65.042C48.3167 64.8462 47.5672 64.8802 46.9029 65.1271C46.3067 65.3569 45.8297 65.7911 45.4294 66.2848C45.1228 66.6594 44.8758 67.102 44.8162 67.5873C44.7613 68.0127 44.8281 68.4658 44.8917 68.8975L44.8918 68.8976C44.9071 69.0014 44.9222 69.104 44.9354 69.2047L44.9449 69.2617L44.953 69.3111L44.9707 69.4193L44.9708 69.4194L44.9708 69.4195C45.0345 69.8095 45.0987 70.2027 45.1994 70.5837C45.2424 70.783 45.2998 70.9768 45.3575 71.1719L45.3575 71.172C45.4255 71.402 45.4941 71.6336 45.5401 71.8776C45.6594 72.5331 45.1994 73.5121 44.5862 73.793C43.8793 74.0909 43.0446 73.6227 42.6443 73.0949C42.4735 72.8602 42.3741 72.5661 42.2814 72.292L42.2814 72.2919L42.2813 72.2918L42.2812 72.2912C42.2724 72.2653 42.2637 72.2395 42.255 72.2139C42.2457 72.1867 42.2364 72.1597 42.227 72.133C42.1589 71.9457 42.0311 71.801 41.8267 71.8947C41.7428 71.9269 41.6736 71.9787 41.6079 72.0278L41.6075 72.0282C41.5866 72.0438 41.5661 72.0591 41.5456 72.0734C41.4676 72.1391 41.389 72.2018 41.3111 72.2641C41.0657 72.46 40.8261 72.6513 40.6258 72.9162C40.3578 73.2759 40.8952 73.8489 41.1859 74.1588C41.2186 74.1937 41.2481 74.2252 41.2731 74.2527C42.3633 75.4615 44.0922 76.3042 45.6679 75.487C45.983 75.3167 46.2726 75.1039 46.5281 74.8486C46.544 74.8295 46.5596 74.8113 46.5749 74.7937C46.5856 74.7814 46.5961 74.7694 46.6065 74.7575L46.6069 74.7571C46.6619 74.6943 46.7143 74.6347 46.7666 74.5591C47.4054 73.7419 47.5587 72.7885 47.482 71.7925C47.4261 71.0878 47.2451 70.4272 47.0623 69.7599C46.9669 69.4116 46.871 69.0615 46.7921 68.7024C46.6473 68.0555 46.9114 67.3744 47.3969 66.9233C47.9164 66.4381 48.6659 66.7445 49.0577 67.2297C49.1752 67.364 49.2431 67.5148 49.3184 67.6821L49.3217 67.6894C49.3353 67.7107 49.348 67.7325 49.3607 67.7543L49.3607 67.7543L49.3607 67.7544C49.4038 67.8283 49.4472 67.9027 49.5261 67.9618C49.6847 68.0966 49.8064 67.9951 49.9394 67.8843L49.9397 67.884L49.9556 67.8708L49.969 67.8597C50.118 67.7342 50.2707 67.634 50.4203 67.5359C50.5956 67.4209 50.7667 67.3086 50.9229 67.1616C51.225 66.8677 51.03 66.6182 50.8157 66.344L50.7907 66.312C50.7836 66.303 50.7766 66.2939 50.7696 66.2848ZM54.3954 74.571L54.3957 74.5706C55.05 73.6475 55.6077 72.8609 55.8458 72.5161C55.8568 72.4977 55.8662 72.4778 55.8754 72.4584C55.8876 72.4327 55.8994 72.4078 55.9139 72.3884C55.9906 72.2267 55.9224 72.1245 55.7862 72.0309C55.5903 71.8691 54.8323 71.3413 54.6449 71.2137C54.3374 70.9977 54.5813 70.652 54.8386 70.2875L54.8578 70.2602L54.9023 70.1963C55.2795 69.6534 55.4493 69.409 55.7691 69.6303C56.0433 69.82 56.2815 69.9901 56.5263 70.1649C56.677 70.2725 56.8301 70.3818 56.9956 70.4986C57.8899 71.103 60.0617 72.6012 60.2832 72.763C60.5466 72.9431 60.2909 73.2643 60.0763 73.5337C60.0273 73.5952 59.9805 73.654 59.9425 73.7079C59.9056 73.7611 59.8679 73.8194 59.8293 73.8789C59.6274 74.1905 59.4034 74.5362 59.1674 74.3718L58.0006 73.5631C57.7366 73.3759 57.6258 73.4014 57.4896 73.5972L52.2857 81.0032C52.2731 81.0239 52.2598 81.0463 52.2458 81.0698C52.0993 81.3167 51.8802 81.6857 51.6469 81.5225L50.4545 80.6967C50.2671 80.5691 50.2756 80.535 50.4034 80.3477C50.5124 80.1809 50.6241 80.0141 50.7358 79.8473C50.9035 79.597 51.0711 79.3467 51.2295 79.0964V79.0879C51.743 78.3126 53.2235 76.2241 54.3946 74.5721L54.395 74.5715L54.3954 74.571ZM61.9458 79.4443L61.9457 79.4445C61.0111 80.7591 59.8271 82.4245 59.4996 82.9356H59.4911C59.416 83.0439 59.3392 83.1523 59.2617 83.2615L59.2616 83.2616L59.2615 83.2617C59.1016 83.4871 58.939 83.7163 58.7842 83.9571C58.5031 84.3827 58.2306 84.8339 57.9665 85.2766C57.8643 85.4213 57.8814 85.4894 57.9921 85.6085C58.222 85.8724 58.4776 86.0682 58.7586 86.264C59.1382 86.5039 59.5021 86.766 59.8653 87.0277C60.2111 87.2768 60.5562 87.5254 60.9134 87.7537C61.0103 87.8146 61.0873 87.8682 61.1586 87.9179L61.1595 87.9185L61.1598 87.9187C61.3075 88.0216 61.4307 88.1075 61.6544 88.2049C61.961 88.3326 62.1484 88.256 62.4295 87.8559C62.5359 87.6556 62.6101 87.552 62.7266 87.3894C62.7685 87.3308 62.816 87.2646 62.8724 87.1834C63.1705 86.7407 62.966 86.3832 62.6935 86.2129C62.5805 86.1462 62.2168 85.8846 61.8673 85.6332L61.8672 85.6331C61.6371 85.4675 61.4132 85.3065 61.2712 85.2085C61.1981 85.1602 61.1344 85.1198 61.0796 85.0851C60.9114 84.9784 60.8269 84.9249 60.8141 84.8578C60.8012 84.7901 60.8611 84.7085 60.9814 84.5448L60.9816 84.5444C61.025 84.4853 61.0763 84.4154 61.1349 84.3316C61.296 84.0999 61.4825 83.8392 61.6717 83.5746C61.8927 83.2657 62.1176 82.9514 62.3102 82.6717C62.5061 82.3908 62.5998 82.3142 62.8638 82.5014L64.5247 83.6506C64.7632 83.872 65.0783 83.8209 65.2742 83.54C65.3721 83.3996 65.4296 83.3315 65.487 83.2634L65.4871 83.2634L65.4871 83.2633L65.4871 83.2633L65.4872 83.2632C65.5446 83.1951 65.6021 83.1271 65.7 82.9866L65.9385 82.561C66.0663 82.3142 66.0492 82.1779 65.8193 82.0247C65.666 81.9226 65.5127 81.8289 65.3593 81.7438C65.0537 81.5631 64.8503 81.4063 64.648 81.2504L64.648 81.2503L64.6479 81.2502C64.45 81.0977 64.2531 80.9459 63.9625 80.7734C63.7752 80.6457 63.7667 80.5946 63.8774 80.4158C64.1721 79.884 64.6006 79.3757 64.9964 78.9062L65.0442 78.8495C65.206 78.6537 65.2827 78.6452 65.4956 78.7729L67.3779 80.0583L67.3965 80.0682L67.4212 80.0816L67.4541 80.0995C67.6651 80.215 67.7348 80.2531 67.8804 80.0157C67.992 79.8244 68.1205 79.6425 68.2491 79.4603C68.3953 79.2532 68.5417 79.0458 68.664 78.824C68.7832 78.6026 68.7406 78.5175 68.5021 78.3473C68.4439 78.3097 68.3921 78.276 68.3448 78.2453L68.2706 78.1971L68.2689 78.196L68.2668 78.1946L68.2666 78.1945C68.0347 78.0436 67.9057 77.9597 67.5823 77.7684C67.257 77.5584 66.1823 76.815 65.5636 76.387L65.3695 76.2527C65.2991 76.204 65.2407 76.1637 65.1975 76.134L65.1632 76.1105C65.1431 76.0968 65.1237 76.0834 65.1051 76.0706L65.104 76.0699C64.6328 75.7454 64.5984 75.7218 64.1414 76.3468C63.8154 76.7627 63.512 77.2069 63.2082 77.6517L63.2082 77.6518L63.2081 77.6519L63.208 77.6521L63.2079 77.6522L63.2078 77.6523L63.2077 77.6524L63.2076 77.6526L63.2075 77.6528C63.1385 77.7538 63.0694 77.8549 63.0001 77.9557C62.7895 78.2576 62.3967 78.8101 61.9458 79.4443ZM67.0372 92.0356C66.6903 91.8137 66.4282 91.6313 66.1634 91.4471C66.1031 91.4052 66.0427 91.3631 65.9811 91.3205C65.9701 91.3132 65.958 91.3059 65.9454 91.2984C65.8994 91.2707 65.8479 91.2396 65.8278 91.1928C65.7596 91.1247 68.3233 88.7923 68.681 88.4688C69.3905 87.8424 70.0631 87.2077 70.7443 86.5649L70.7445 86.5647L70.7449 86.5644L70.7461 86.5632L70.7464 86.563C71.0458 86.2805 71.3468 85.9964 71.6535 85.7107C72.0405 85.3446 72.7042 84.7326 73.2996 84.1835L73.3013 84.1819L73.3021 84.1812C73.9241 83.6076 74.471 83.1033 74.5493 83.0207C74.566 83.0022 74.5812 82.9849 74.5954 82.9689C74.7181 82.8299 74.756 82.787 74.924 82.9015C75.2208 83.131 75.536 83.342 75.8453 83.5492C76.0065 83.6572 76.1662 83.7641 76.3208 83.872C76.4753 83.9769 76.4729 83.9834 76.4306 84.096C76.4146 84.1386 76.393 84.1964 76.3719 84.2806C76.159 84.7232 72.6925 92.955 72.6329 93.1507C72.5648 93.3763 72.469 93.5913 72.3732 93.8062C72.2773 94.0212 72.1815 94.2361 72.1134 94.4617C72.0793 94.5979 71.8579 95.364 71.5513 95.1597C71.3737 95.052 70.9034 94.7271 70.5868 94.5085L70.5863 94.5082C70.478 94.4333 70.3876 94.3709 70.3333 94.334C70.3232 94.3271 70.3136 94.3206 70.3046 94.3145L70.2998 94.3113L70.299 94.3108C70.1693 94.2234 70.159 94.2164 70.2141 94.0276C70.2524 93.8871 70.3035 93.736 70.3546 93.5849C70.4057 93.4338 70.4568 93.2827 70.4951 93.1422L70.6144 92.7677C70.657 92.623 70.6229 92.5038 70.4781 92.4016C70.3036 92.2748 70.1551 92.1618 70.0173 92.0571C69.6374 91.7682 69.3401 91.5421 68.8088 91.2609C68.6554 91.1928 68.6043 91.1843 68.4851 91.329C68.4689 91.3469 68.4469 91.3721 68.4201 91.4027C68.1796 91.6776 67.555 92.3914 67.3098 92.2229C67.1905 92.1377 67.0713 92.0526 67.0372 92.0186V92.0356ZM70.8699 90.2309C70.9295 90.2735 70.987 90.3181 71.0444 90.3628C71.102 90.4075 71.1595 90.4522 71.2191 90.4948C71.4576 90.665 71.5087 90.6991 71.7216 90.1373C71.8523 89.8151 71.9718 89.533 72.0893 89.2557L72.0898 89.2545C72.2019 88.99 72.3122 88.7298 72.4285 88.4433C72.4557 88.3391 72.5335 88.1676 72.6093 88.0003L72.6094 88.0001C72.6761 87.853 72.7413 87.7091 72.7692 87.6175C72.7692 87.592 72.7607 87.5494 72.7351 87.5324C72.7181 87.5239 72.6755 87.5324 72.6414 87.5494C72.4911 87.6887 72.1356 88.0157 71.7583 88.3626C71.2593 88.8217 70.7222 89.3157 70.5718 89.4563C70.2141 89.7712 70.2226 89.7883 70.5973 90.0436L70.8784 90.2394L70.8699 90.2309ZM79.0499 97.1067C79.0679 97.0716 79.0854 97.0377 79.1059 97.007L79.0974 97.0155C79.2551 96.7915 79.528 96.3654 79.7892 95.9578L79.7892 95.9577L79.7895 95.9572C80.0642 95.5285 80.3256 95.1204 80.426 94.9895C80.4516 94.9469 80.5112 94.9129 80.5282 94.9214C80.5538 94.9384 80.5964 94.998 80.5964 95.0235C80.6103 95.3714 80.5033 96.4529 80.3876 97.6225L80.3876 97.6226C80.2202 99.3149 80.0345 101.192 80.1705 101.297C80.2301 101.357 80.2898 101.408 80.3579 101.451C80.6352 101.622 80.8766 101.796 81.1246 101.975L81.1247 101.975L81.1248 101.975L81.1249 101.975L81.1249 101.975L81.125 101.975C81.2959 102.099 81.47 102.224 81.661 102.353C82.1294 102.668 82.138 102.004 82.138 101.834C82.138 101.578 82.5212 97.6539 82.5468 97.4156C82.5698 97.1282 82.6066 96.8391 82.6432 96.5514L82.6432 96.5511L82.6433 96.5508C82.688 96.1995 82.7325 95.8503 82.7512 95.5088C82.7682 95.4407 82.7938 95.3385 82.8449 95.2959C82.9812 95.1597 83.1174 95.0406 83.2878 94.9384C84.0373 94.5298 84.8123 94.1297 85.6129 93.7977C86.5072 93.4146 87.0438 93.1593 87.8103 92.7847C87.9892 92.6996 88.1595 92.5719 88.3299 92.4357C88.3895 92.3761 88.381 92.2739 88.3043 92.2229C88.1472 92.0995 87.6904 91.7875 87.3143 91.5306L87.3141 91.5305C87.1195 91.3976 86.9466 91.2795 86.8479 91.2099C86.7116 91.1247 86.5668 91.0566 86.4135 91.1247C86.0132 91.3376 81.9761 93.355 81.6014 93.5253C81.5673 93.5423 81.5247 93.5253 81.4821 93.4998C81.4821 93.4998 81.4821 93.4402 81.4992 93.4146C81.7482 93.0392 82.3213 92.2772 82.8745 91.5417L82.8757 91.5401L82.8762 91.5394L82.8786 91.5362L82.8792 91.5354C83.4408 90.7888 83.9809 90.0707 84.1395 89.8138C84.3269 89.5158 84.2928 89.4477 84.0117 89.2349C83.7622 89.0479 83.4225 88.8102 83.1348 88.6088L83.1343 88.6085L83.041 88.5431L82.9471 88.4773C82.649 88.273 82.5127 88.4092 82.3253 88.5965C82.2828 88.6305 81.414 89.8819 81.0308 90.4352C80.9214 90.5926 80.6975 90.9094 80.4004 91.3301C79.1703 93.0714 76.6841 96.591 75.8609 97.9349C75.7502 98.0966 75.7331 98.2158 75.8609 98.3094C76.1126 98.4581 76.4297 98.6874 76.7192 98.8968C76.8606 98.9991 76.9955 99.0967 77.1129 99.1777C77.3599 99.3565 77.4195 99.3565 77.7176 98.9308C77.9031 98.6608 78.0944 98.4117 78.2959 98.1492C78.5199 97.8575 78.7566 97.5492 79.0122 97.1772C79.0258 97.1535 79.0379 97.1298 79.0499 97.1067ZM129.407 126.41C128.495 127.697 127.382 129.27 127.062 129.781H127.048C126.974 129.889 126.897 129.997 126.82 130.105L126.819 130.107L126.819 130.107C126.659 130.332 126.496 130.561 126.342 130.802C126.286 130.89 126.23 130.978 126.174 131.067C126.132 131.132 126.09 131.198 126.047 131.264C125.867 131.545 125.686 131.827 125.515 132.113C125.422 132.266 125.422 132.326 125.549 132.454C125.771 132.709 126.035 132.913 126.316 133.109C127.048 133.577 127.134 133.458 127.474 132.964C127.581 132.764 127.655 132.66 127.771 132.498L127.772 132.498L127.773 132.496C127.793 132.468 127.814 132.439 127.836 132.407C127.861 132.372 127.888 132.334 127.917 132.292C128.019 132.141 128.089 132.034 128.154 131.935L128.156 131.933L128.156 131.932C128.281 131.742 128.39 131.576 128.675 131.168C129.041 130.675 129.493 130.028 129.851 129.508C130.046 129.227 130.149 129.159 130.404 129.338L132.338 130.683C132.525 130.858 132.585 130.752 132.689 130.568C132.722 130.51 132.759 130.444 132.806 130.377C132.895 130.249 132.954 130.183 133.009 130.122C133.075 130.048 133.134 129.981 133.232 129.823C133.305 129.717 133.362 129.606 133.42 129.494C133.437 129.462 133.453 129.43 133.47 129.398C133.598 129.151 133.581 129.015 133.351 128.861C133.318 128.838 133.299 128.825 133.288 128.819C133.282 128.815 133.278 128.813 133.275 128.813C133.272 128.812 133.271 128.813 133.27 128.814C133.266 128.817 133.259 128.822 133.189 128.785C132.884 128.606 132.606 128.399 132.327 128.191L132.327 128.19C132.061 127.992 131.794 127.793 131.503 127.618C131.315 127.491 131.307 127.44 131.418 127.261C131.733 126.716 132.176 126.18 132.585 125.695C132.763 125.507 132.823 125.49 133.036 125.618L134.918 126.903L134.942 126.917L134.968 126.932C135.209 127.072 135.285 127.116 135.421 126.861C135.525 126.682 135.647 126.514 135.769 126.345C135.927 126.127 136.084 125.909 136.204 125.669C136.324 125.439 136.298 125.371 136.059 125.201C135.968 125.142 135.892 125.092 135.824 125.048C135.592 124.897 135.463 124.813 135.14 124.622C134.8 124.403 133.631 123.595 133.025 123.177L133.024 123.177L133.023 123.176C132.901 123.092 132.802 123.023 132.738 122.979C132.708 122.958 132.679 122.938 132.652 122.919C132.188 122.598 132.14 122.565 131.682 123.192C131.298 123.711 130.915 124.256 130.54 124.801C130.32 125.12 129.895 125.721 129.413 126.402L129.409 126.407L129.407 126.41L129.407 126.41ZM135.543 138.715C135.611 138.607 135.683 138.492 135.761 138.378L135.77 138.404C135.822 138.329 135.935 138.166 136.082 137.956L136.083 137.954C136.605 137.203 137.546 135.849 137.652 135.723L137.659 135.719C137.704 135.691 137.791 135.639 137.831 135.671C137.874 135.705 137.891 135.748 137.874 135.799C137.742 136.786 137.577 137.747 137.413 138.698C137.344 139.101 137.275 139.502 137.209 139.902C137.196 139.978 137.164 140.108 137.132 140.241C137.084 140.44 137.034 140.645 137.039 140.685C137.032 140.78 137.1 140.821 137.171 140.864L137.172 140.864C137.178 140.868 137.185 140.871 137.191 140.875C137.197 140.879 137.204 140.883 137.21 140.888L137.216 140.891C137.218 140.893 137.221 140.894 137.223 140.896L137.226 140.898L138.674 141.928C138.845 142.047 138.964 141.962 139.023 141.792C139.149 141.423 139.31 140.182 139.408 139.427C139.436 139.206 139.459 139.027 139.475 138.923C139.495 138.805 139.54 138.485 139.593 138.109C139.695 137.378 139.827 136.434 139.867 136.344C139.872 136.292 139.994 136.295 140.088 136.297C140.134 136.298 140.174 136.298 140.19 136.293C141.229 136.165 142.2 135.978 142.941 135.169C143.682 134.386 144.151 133.288 144.066 132.19C143.98 131.364 143.623 130.666 142.975 130.155C142.755 129.982 142.527 129.832 142.3 129.682L142.3 129.682C142.114 129.56 141.929 129.438 141.749 129.304C141.478 129.094 141.261 128.943 140.956 128.732L140.955 128.731L140.952 128.729L140.94 128.721C140.894 128.689 140.845 128.655 140.795 128.62C140.764 128.599 140.733 128.577 140.701 128.555C140.488 128.41 140.275 128.436 140.105 128.648L139.994 128.81C139.459 129.538 138.951 130.294 138.446 131.044L138.445 131.046L138.445 131.046L138.445 131.046C138.26 131.321 138.076 131.595 137.891 131.866C137.167 132.914 135.62 135.115 134.575 136.601L134.574 136.603L134.571 136.606C134.082 137.303 133.703 137.842 133.572 138.029C133.453 138.2 133.453 138.259 133.615 138.37C133.671 138.406 133.727 138.451 133.784 138.496L133.784 138.496C133.821 138.526 133.859 138.556 133.896 138.583C134.089 138.717 134.247 138.821 134.409 138.928C134.554 139.024 134.703 139.122 134.884 139.247C135.111 139.406 135.3 139.103 135.543 138.715ZM138.938 133.833C139.083 133.628 139.356 133.203 139.356 133.203V133.194L140.301 131.866C140.333 131.825 140.368 131.772 140.406 131.714C140.542 131.506 140.722 131.233 140.948 131.219C141.332 131.211 141.715 131.756 141.834 132.071C142.183 132.981 141.357 134.063 140.565 134.437C140.19 134.607 139.773 134.573 139.381 134.437C139.151 134.352 138.725 134.165 138.938 133.833ZM145.906 144.035L145.904 144.038L145.903 144.04C145.356 144.849 144.807 145.66 144.764 145.708C144.577 145.836 144.415 145.784 144.253 145.682C144.092 145.579 143.937 145.476 143.783 145.374L143.782 145.373C143.503 145.188 143.229 145.006 142.933 144.831C142.831 144.754 142.831 144.661 142.865 144.593C142.975 144.397 143.095 144.201 143.239 144.022C143.64 143.512 145.258 141.06 145.616 140.515C145.808 140.226 146.65 139.032 147.526 137.788L147.528 137.785L147.53 137.782L147.53 137.781L147.533 137.777C148.28 136.717 149.051 135.623 149.465 135.024C149.644 134.769 149.797 134.778 150.036 134.973C150.419 135.237 150.59 135.356 150.973 135.637C150.99 135.651 151.007 135.663 151.024 135.676C151.255 135.85 151.426 135.978 151.101 136.455C150.928 136.7 150.755 136.964 150.583 137.229C150.432 137.46 150.281 137.692 150.13 137.91C149.074 139.4 147.949 141 146.936 142.541L146.927 142.533C146.736 142.808 146.322 143.42 145.906 144.035ZM154.292 143.855L154.291 143.856L154.286 143.865C153.115 145.515 151.639 147.598 151.126 148.372V148.381C150.968 148.631 150.8 148.882 150.632 149.132C150.521 149.299 150.409 149.465 150.3 149.632C150.172 149.819 150.164 149.854 150.351 149.981L151.544 150.807C151.777 150.97 151.996 150.601 152.142 150.354L152.161 150.324C152.168 150.311 152.175 150.299 152.182 150.288L157.386 142.882C157.522 142.686 157.633 142.66 157.897 142.848L159.064 143.656C159.3 143.821 159.524 143.475 159.726 143.163C159.764 143.104 159.802 143.046 159.839 142.992C159.877 142.939 159.924 142.88 159.972 142.819L159.973 142.819L159.973 142.818C160.188 142.549 160.443 142.228 160.18 142.047C159.958 141.886 157.787 140.387 156.892 139.783C156.727 139.666 156.574 139.557 156.423 139.45C156.178 139.275 155.94 139.105 155.666 138.915C155.346 138.693 155.176 138.938 154.799 139.481L154.754 139.545L154.735 139.572C154.478 139.937 154.234 140.282 154.542 140.498C154.729 140.626 155.487 141.154 155.691 141.315C155.819 141.409 155.887 141.511 155.811 141.673C155.796 141.692 155.784 141.717 155.772 141.743C155.763 141.762 155.753 141.782 155.742 141.801C155.504 142.145 154.947 142.932 154.292 143.855ZM161.834 148.728L161.834 148.728L161.836 148.726C162.286 148.093 162.678 147.542 162.888 147.24C162.957 147.141 163.025 147.041 163.093 146.941L163.095 146.938L163.096 146.937C163.4 146.492 163.703 146.047 164.029 145.631C164.486 145.006 164.521 145.03 164.992 145.354C165.022 145.375 165.053 145.396 165.086 145.418C165.164 145.472 165.293 145.562 165.452 145.671C166.07 146.099 167.145 146.843 167.47 147.053C167.794 147.244 167.923 147.328 168.155 147.479L168.155 147.479L168.161 147.483C168.227 147.526 168.301 147.574 168.39 147.632C168.629 147.802 168.671 147.887 168.552 148.108C168.43 148.33 168.283 148.538 168.137 148.745L168.137 148.745L168.137 148.745C168.008 148.927 167.88 149.109 167.768 149.3C167.623 149.538 167.553 149.499 167.342 149.384C167.319 149.371 167.293 149.357 167.266 149.343L165.384 148.057C165.171 147.93 165.094 147.938 164.932 148.134L164.885 148.191C164.489 148.66 164.06 149.168 163.765 149.7C163.655 149.879 163.663 149.93 163.851 150.058C164.141 150.23 164.338 150.382 164.536 150.535L164.536 150.535C164.738 150.691 164.942 150.848 165.247 151.028C165.401 151.113 165.554 151.207 165.707 151.309C165.937 151.462 165.954 151.599 165.827 151.845L165.588 152.271C165.49 152.412 165.433 152.48 165.375 152.548C165.318 152.616 165.26 152.684 165.162 152.824C164.966 153.105 164.651 153.156 164.413 152.935L162.752 151.786C162.488 151.599 162.394 151.675 162.198 151.956C162.006 152.235 161.782 152.548 161.562 152.856L161.56 152.859L161.558 152.861C161.37 153.125 161.184 153.385 161.023 153.616C160.964 153.7 160.913 153.77 160.869 153.829C160.749 153.993 160.689 154.075 160.702 154.142C160.715 154.209 160.799 154.263 160.968 154.37C161.023 154.404 161.086 154.445 161.159 154.493C161.238 154.547 161.342 154.621 161.458 154.704C161.551 154.771 161.653 154.844 161.755 154.918C162.105 155.169 162.469 155.431 162.582 155.497C162.854 155.668 163.059 156.025 162.76 156.468C162.704 156.549 162.657 156.615 162.615 156.674C162.498 156.836 162.424 156.94 162.318 157.14C162.036 157.54 161.849 157.617 161.543 157.489C161.319 157.392 161.196 157.306 161.048 157.203C160.976 157.153 160.899 157.099 160.802 157.038C160.444 156.81 160.099 156.561 159.754 156.312C159.39 156.051 159.026 155.788 158.647 155.548C158.366 155.353 158.11 155.157 157.88 154.893C157.769 154.774 157.752 154.706 157.855 154.561C158.119 154.118 158.391 153.667 158.672 153.242C158.827 153.001 158.989 152.772 159.149 152.547L159.15 152.546C159.227 152.437 159.304 152.328 159.379 152.22H159.388C159.715 151.709 160.9 150.043 161.834 148.728ZM176.234 153.301C175.953 152.969 175.664 152.68 175.298 152.441L175.306 152.45C175.042 152.288 174.761 152.152 174.454 152.058C173.782 151.862 173.032 151.897 172.368 152.143C171.772 152.373 171.295 152.807 170.894 153.301C170.588 153.676 170.341 154.118 170.281 154.604C170.226 155.029 170.293 155.482 170.357 155.914C170.372 156.018 170.387 156.12 170.4 156.221C170.412 156.292 170.424 156.364 170.436 156.436C170.499 156.826 170.564 157.219 170.664 157.6C170.707 157.799 170.765 157.993 170.822 158.188C170.89 158.418 170.959 158.65 171.005 158.894C171.124 159.549 170.664 160.528 170.051 160.809C169.344 161.107 168.509 160.639 168.109 160.111C167.938 159.877 167.839 159.582 167.746 159.308C167.728 159.254 167.71 159.201 167.692 159.149C167.624 158.962 167.496 158.817 167.292 158.911C167.208 158.943 167.138 158.995 167.073 159.044C167.052 159.06 167.031 159.075 167.01 159.09C166.932 159.155 166.854 159.218 166.776 159.28C166.531 159.476 166.291 159.668 166.091 159.932C165.823 160.292 166.36 160.865 166.651 161.175C166.683 161.21 166.713 161.241 166.738 161.269C167.828 162.478 169.557 163.321 171.133 162.503C171.448 162.333 171.737 162.12 171.993 161.865C172.02 161.832 172.046 161.803 172.072 161.773C172.127 161.711 172.179 161.651 172.231 161.575C172.87 160.758 173.024 159.805 172.947 158.809C172.891 158.104 172.71 157.443 172.527 156.776C172.432 156.428 172.336 156.078 172.257 155.719C172.112 155.072 172.376 154.391 172.862 153.94C173.381 153.454 174.131 153.761 174.523 154.246C174.64 154.38 174.708 154.531 174.783 154.699L174.787 154.706C174.8 154.727 174.813 154.749 174.826 154.771C174.869 154.845 174.912 154.919 174.991 154.978C175.15 155.113 175.271 155.011 175.404 154.901C175.414 154.892 175.424 154.884 175.434 154.876C175.583 154.751 175.736 154.65 175.885 154.552C176.06 154.437 176.232 154.325 176.388 154.178C176.69 153.884 176.495 153.635 176.281 153.36C176.265 153.341 176.25 153.321 176.234 153.301Z" fill="#A39D8F"/>
</svg>
