<svg width="24" height="24" viewBox="0 0 24 24" fill="none" xmlns="http://www.w3.org/2000/svg">
<path fill-rule="evenodd" clip-rule="evenodd" d="M12.2838 4.69865C12.0987 4.64391 11.9013 4.64391 11.7162 4.69865C11.665 4.71378 11.5753 4.75117 11.3841 4.89417C11.1828 5.04468 10.9362 5.25963 10.5513 5.5964L5.75128 9.7964C5.30962 10.1829 5.22787 10.2644 5.17259 10.3459C5.10873 10.4399 5.06132 10.5444 5.03248 10.6547C5.00759 10.75 5 10.8654 5 11.4521V17C5 17.4797 5.00054 17.7893 5.01671 18.0262C5.03226 18.2542 5.05888 18.341 5.07612 18.3826C5.17753 18.6275 5.37233 18.8223 5.61755 18.9239C5.65916 18.9411 5.74599 18.9677 5.97399 18.9833C6.21097 18.9994 6.52061 19 7.00023 19C7.47986 19 7.78943 18.9994 8.02634 18.9833C8.25423 18.9677 8.34103 18.9411 8.38268 18.9239C8.6276 18.8224 8.82224 18.6278 8.92378 18.3826C8.94104 18.341 8.96767 18.2541 8.98324 18.0261C8.99943 17.7892 9 17.4795 9 17V16C9 14.3431 10.3431 13 12 13C13.6569 13 15 14.3431 15 16V17C15 17.4796 15.0005 17.7892 15.0167 18.0262C15.0323 18.2542 15.0589 18.341 15.0761 18.3826C15.1775 18.6275 15.3723 18.8223 15.6175 18.9239C15.6592 18.9411 15.746 18.9677 15.974 18.9833C16.211 18.9994 16.5206 19 17.0002 19C17.4799 19 17.7894 18.9994 18.0263 18.9833C18.2542 18.9677 18.341 18.9411 18.3827 18.9239C18.6276 18.8224 18.8222 18.6278 18.9238 18.3826C18.941 18.3409 18.9677 18.2541 18.9832 18.0261C18.9994 17.7892 19 17.4796 19 17V11.4521C19 10.8653 18.9924 10.75 18.9675 10.6547C18.9387 10.5445 18.8913 10.44 18.8274 10.3459C18.772 10.2643 18.6902 10.1825 18.2489 9.7964L13.4489 5.5964C13.0641 5.25968 12.8174 5.04472 12.6161 4.89423C12.4249 4.75122 12.335 4.7138 12.2838 4.69865ZM11.149 2.78075C11.7043 2.61654 12.2957 2.61654 12.851 2.78075C13.2198 2.88984 13.5267 3.07784 13.8138 3.29251C14.0841 3.49465 14.3889 3.76133 14.7396 4.06818L19.5659 8.29125C19.5887 8.31121 19.6114 8.33098 19.6338 8.35059C19.9688 8.64308 20.2635 8.90044 20.4821 9.22255C20.674 9.50522 20.8162 9.81862 20.9026 10.1491C21.0009 10.5255 21.0005 10.9167 21.0001 11.3605C21 11.3908 21 11.4213 21 11.4521V17.0306C21 17.4699 21 17.8489 20.9786 18.1625C20.9561 18.4923 20.9065 18.8222 20.7715 19.148C20.4671 19.883 19.8832 20.4671 19.148 20.7716C18.8222 20.9066 18.4923 20.9561 18.1625 20.9786C17.8493 21 17.4709 21 17.0322 21H16.9682C16.5296 21 16.1511 21 15.8378 20.9786C15.508 20.9561 15.1781 20.9066 14.8522 20.7716C14.1173 20.4672 13.5329 19.8833 13.2284 19.148C13.0934 18.8221 13.0439 18.4922 13.0213 18.1623C13 17.8491 13 17.4706 13 17.0319V16C13 15.4477 12.5523 15 12 15C11.4477 15 11 15.4477 11 16L11 17.0305C11 17.4698 11 17.8488 10.9786 18.1624C10.9561 18.4923 10.9065 18.8221 10.7715 19.148C10.4671 19.883 9.88325 20.4671 9.14805 20.7716C8.82216 20.9066 8.49233 20.9561 8.16251 20.9786C7.8493 21 7.47086 21 7.03222 21H6.96824C6.52959 21 6.1511 21 5.83785 20.9786C5.50802 20.9561 5.17811 20.9066 4.85218 20.7716C4.11728 20.4672 3.53292 19.8833 3.22836 19.148C3.09336 18.8221 3.04385 18.4922 3.02135 18.1624C2.99998 17.8491 2.99999 17.4707 3 17.032L3 11.4521C3 11.4214 2.99997 11.391 2.99994 11.3608C2.99949 10.9169 2.99909 10.5255 3.09746 10.1491C3.18378 9.81876 3.32588 9.50534 3.51784 9.22256C3.73627 8.90077 4.03095 8.64347 4.36508 8.35171C4.38796 8.33173 4.41103 8.31158 4.43427 8.29125L9.26189 4.06708C9.61197 3.76074 9.91627 3.49445 10.1862 3.29257C10.4732 3.0779 10.7801 2.88986 11.149 2.78075Z" fill="#3F4B59"/>
</svg>
